<svg width="438" height="124" viewBox="0 0 438 124" fill="none" xmlns="http://www.w3.org/2000/svg">
<path d="M417.351 32.0586C314.548 -9.57495 98.8256 -0.120239 16.2245 23.7851C-1.45314 28.8993 0.419924 48.3944 12.0851 57.7119C127.521 138.084 296.605 143.993 425.514 66.3351C442.013 56.3956 434 38.8009 417.351 32.0586Z" fill="#DADADA" stroke="black" stroke-width="5"/>
<path fill-rule="evenodd" clip-rule="evenodd" d="M130.342 61.4351C131.778 55.5125 137.743 51.8751 143.666 53.3106C195.362 65.8414 235.749 64.7838 290.849 57.8024C296.895 57.0364 302.417 61.3165 303.183 67.3622C303.949 73.408 299.669 78.93 293.623 79.696C237.09 86.8591 193.752 88.1589 138.467 74.7582C132.544 73.3226 128.907 67.3576 130.342 61.4351Z" fill="#609FC2"/>
</svg>
