<svg width="397" height="113" viewBox="0 0 397 113" fill="none" xmlns="http://www.w3.org/2000/svg">
<path d="M378.39 29.0241C285.223 -8.70687 89.7212 -0.138405 14.8628 21.5261C-1.15786 26.161 0.539635 43.8287 11.1114 52.2728C115.727 125.111 268.962 130.467 385.787 60.0877C400.739 51.0799 393.477 35.1344 378.39 29.0241Z" fill="#C1C1C1" stroke="black" stroke-width="5"/>
<path fill-rule="evenodd" clip-rule="evenodd" d="M118.284 55.6466C119.585 50.2792 124.991 46.9827 130.358 48.2837C177.209 59.6399 213.81 58.6815 263.745 52.3545C269.224 51.6603 274.229 55.5391 274.923 61.0182C275.617 66.4972 271.738 71.5016 266.259 72.1959C215.025 78.6875 175.75 79.8655 125.647 67.7209C120.279 66.4199 116.983 61.014 118.284 55.6466Z" fill="#609FC2"/>
</svg>
