<svg width="228" height="208" viewBox="0 0 228 208" fill="none" xmlns="http://www.w3.org/2000/svg">
<path d="M217.891 127.042L163.15 197.271C152.321 211.164 141.063 202.612 134.255 197.44L134.032 197.271C97.054 169.195 21.0525 80.2223 8.24066 62.6651C-2.00883 48.6193 6.29947 38.0849 11.7348 34.5734C17.9466 30.6718 36.4359 21.2994 55.994 7.65218C72.0971 -3.58425 86.778 8.21751 90.9375 11.1636C96.5561 15.1432 173.154 69.6145 205.08 84.9042C230.498 97.0775 228.169 112.294 217.891 127.042Z" fill="#DADADA" stroke="black" stroke-width="5"/>
<path d="M96.3604 82.3395C96.3607 68.0722 107.733 62.3429 121.252 68.5729C121.936 68.8881 122.36 69.5815 122.36 70.3327V80.3461C122.36 81.4471 121.468 82.3395 120.363 82.3395H111.86C104.275 82.3395 104.86 110.778 113.86 110.778H121.363C122.468 110.778 123.36 111.67 123.36 112.771V121.198C123.36 121.953 122.935 122.649 122.242 122.954C110.45 128.149 96.3654 123.781 96.3629 110.778C96.3595 93.3982 96.3601 99.719 96.3604 82.3395Z" fill="black"/>
<path fill-rule="evenodd" clip-rule="evenodd" d="M102.55 65.5767C107.989 62.6525 115.08 62.9836 122.301 66.3112C123.912 67.0538 124.86 68.658 124.86 70.3327V80.3462C124.86 82.8179 122.854 84.8312 120.363 84.8312H111.86C111.795 84.8312 111.611 84.8312 111.269 85.2153C110.889 85.6419 110.461 86.3999 110.084 87.5546C109.334 89.8504 108.985 93.0859 109.138 96.4459C109.291 99.8077 109.933 103.026 110.964 105.313C112.056 107.735 113.152 108.286 113.86 108.286H121.363C123.854 108.286 125.86 110.299 125.86 112.771V121.198C125.86 122.87 124.912 124.502 123.253 125.233C116.828 128.063 109.642 128.359 103.922 125.991C98.0655 123.567 93.8644 118.361 93.8629 110.778C93.8613 102.088 93.8606 99.3236 93.8603 96.5588C93.8601 93.7941 93.8603 91.0293 93.8605 82.3395C93.8606 74.5257 97.019 68.5501 102.55 65.5767ZM104.923 69.9627C101.388 71.8633 98.8605 75.886 98.8604 82.3396C98.8602 91.0293 98.86 93.7938 98.8603 96.5584C98.8605 99.323 98.8612 102.088 98.8629 110.777C98.8639 116.197 101.706 119.678 105.84 121.389C110.013 123.117 115.599 123.044 120.86 120.835V113.269H113.86C110.068 113.269 107.715 110.265 106.404 107.356C105.031 104.31 104.314 100.419 104.143 96.6714C103.973 92.9218 104.338 89.0478 105.33 86.0114C105.824 84.5 106.524 83.0363 107.529 81.9076C108.571 80.737 110.029 79.8478 111.86 79.8478H119.86V70.6792C113.71 67.9357 108.484 68.0485 104.923 69.9627Z" fill="black"/>
</svg>
