<svg width="207" height="189" viewBox="0 0 207 189" fill="none" xmlns="http://www.w3.org/2000/svg">
<path d="M197.405 115.511L147.795 179.157C137.98 191.747 127.778 183.997 121.608 179.31L121.406 179.157C87.8944 153.713 19.0169 73.0799 7.40601 57.1684C-1.88274 44.4391 5.64678 34.8922 10.5726 31.7099C16.2022 28.174 32.9583 19.6801 50.6831 7.31213C65.2768 -2.87105 78.5816 7.82447 82.3512 10.4944C87.4432 14.101 156.861 63.4663 185.794 77.3229C208.83 88.3551 206.719 102.145 197.405 115.511Z" fill="#C1C1C1" stroke="black" stroke-width="5"/>
<path d="M87.2658 74.9988C87.266 62.0688 97.5721 56.8766 109.824 62.5226C110.444 62.8083 110.828 63.4367 110.828 64.1174V73.1923C110.828 74.19 110.02 74.9988 109.019 74.9988H101.312C94.4384 74.9988 94.9688 100.771 103.125 100.771H109.925C110.926 100.771 111.734 101.58 111.734 102.578V110.215C111.734 110.899 111.349 111.53 110.722 111.806C100.035 116.514 87.2704 112.556 87.2681 100.771C87.265 85.0209 87.2656 90.7492 87.2658 74.9988Z" fill="black"/>
<path fill-rule="evenodd" clip-rule="evenodd" d="M92.8749 59.8073C97.8043 57.1571 104.231 57.4572 110.775 60.4729C112.235 61.1459 113.094 62.5997 113.094 64.1175V73.1923C113.094 75.4323 111.276 77.257 109.019 77.257H101.312C101.253 77.257 101.087 77.257 100.777 77.6051C100.433 77.9916 100.045 78.6786 99.703 79.7251C99.0231 81.8056 98.7073 84.7379 98.8457 87.7829C98.9842 90.8296 99.5665 93.7464 100.501 95.8188C101.491 98.0141 102.483 98.5132 103.125 98.5132H109.925C112.182 98.5132 114 100.338 114 102.578V110.215C114 111.73 113.142 113.209 111.637 113.872C105.815 116.437 99.3023 116.705 94.119 114.559C88.8111 112.361 85.0038 107.644 85.0024 100.772C85.0009 92.8965 85.0003 90.3909 85.0001 87.8853C84.9999 85.3797 85.0001 82.8741 85.0002 74.9988C85.0003 67.9174 87.8627 62.502 92.8749 59.8073ZM95.0261 63.7822C91.8223 65.5046 89.5316 69.1502 89.5315 74.9989C89.5313 82.874 89.5311 85.3794 89.5313 87.8849C89.5316 90.3903 89.5322 92.8958 89.5337 100.771C89.5346 105.683 92.1106 108.837 95.8571 110.388C99.639 111.954 104.701 111.888 109.469 109.886V103.029H103.125C99.6889 103.029 97.5565 100.307 96.3676 97.6699C95.1234 94.91 94.4734 91.3837 94.3191 87.9873C94.1646 84.5891 94.4953 81.0782 95.3945 78.3265C95.842 76.9567 96.4769 75.6303 97.3876 74.6074C98.3322 73.5465 99.6529 72.7407 101.312 72.7407H108.562V64.4315C102.989 61.9452 98.253 62.0473 95.0261 63.7822Z" fill="black"/>
</svg>
