<svg width="386" height="386" viewBox="0 0 386 386" fill="none" xmlns="http://www.w3.org/2000/svg">
<circle cx="192.897" cy="192.896" r="190.396" transform="rotate(90 192.897 192.896)" fill="#222222" stroke="black" stroke-width="5"/>
<circle cx="193.082" cy="193.632" r="66.8309" transform="rotate(90 193.082 193.632)" fill="#9E5B5F" stroke="black" stroke-width="5"/>
<circle cx="193.223" cy="193.49" r="8.6824" transform="rotate(90 193.223 193.49)" fill="#222222" stroke="black" stroke-width="5"/>
<path d="M192.637 143.09L203.393 176.195L203.955 177.923H205.771L240.579 177.923L212.419 198.382L210.949 199.45L211.511 201.178L222.267 234.282L194.106 213.822L192.637 212.755L191.167 213.822L163.007 234.282L173.763 201.178L174.324 199.45L172.855 198.382L144.694 177.923L179.503 177.923H181.319L181.88 176.195L192.637 143.09Z" stroke="black" stroke-width="5"/>
</svg>
