<svg width="386" height="386" viewBox="0 0 386 386" fill="none" xmlns="http://www.w3.org/2000/svg">
<circle cx="192.574" cy="192.574" r="190.074" transform="rotate(90 192.574 192.574)" fill="#222222" stroke="black" stroke-width="5"/>
<circle cx="192.015" cy="192.016" r="66.7149" transform="rotate(90 192.015 192.016)" fill="#CE65C4" stroke="black" stroke-width="5"/>
<circle cx="192.016" cy="192.016" r="8.66369" transform="rotate(90 192.016 192.016)" fill="#222222" stroke="black" stroke-width="5"/>
<path d="M191.5 141.09L202.256 174.195L202.818 175.923H204.634L239.443 175.923L211.282 196.382L209.812 197.45L210.374 199.178L221.13 232.282L192.969 211.822L191.5 210.755L190.031 211.822L161.87 232.282L172.626 199.178L173.188 197.45L171.718 196.382L143.557 175.923L178.366 175.923H180.182L180.744 174.195L191.5 141.09Z" stroke="black" stroke-width="5"/>
</svg>
