<svg width="386" height="386" viewBox="0 0 386 386" fill="none" xmlns="http://www.w3.org/2000/svg">
<circle cx="192.574" cy="192.574" r="190.074" transform="rotate(90 192.574 192.574)" fill="#222222" stroke="black" stroke-width="5"/>
<circle cx="192.015" cy="192.016" r="66.7149" transform="rotate(90 192.015 192.016)" fill="#354EA8" stroke="black" stroke-width="5"/>
<circle cx="192.016" cy="192.016" r="8.66369" transform="rotate(90 192.016 192.016)" fill="#222222" stroke="black" stroke-width="5"/>
<path d="M191.637 143.09L202.393 176.195L202.955 177.923H204.771L239.579 177.923L211.419 198.382L209.949 199.45L210.511 201.178L221.267 234.282L193.106 213.822L191.637 212.755L190.167 213.822L162.007 234.282L172.763 201.178L173.324 199.45L171.855 198.382L143.694 177.923L178.503 177.923H180.319L180.88 176.195L191.637 143.09Z" stroke="black" stroke-width="5"/>
</svg>
