<svg width="386" height="386" viewBox="0 0 386 386" fill="none" xmlns="http://www.w3.org/2000/svg">
<circle cx="192.574" cy="192.574" r="190.074" transform="rotate(90 192.574 192.574)" fill="#222222" stroke="black" stroke-width="5"/>
<circle cx="192.015" cy="192.016" r="66.7149" transform="rotate(90 192.015 192.016)" fill="#9A962E" stroke="black" stroke-width="5"/>
<circle cx="192.016" cy="192.016" r="8.66369" transform="rotate(90 192.016 192.016)" fill="#222222" stroke="black" stroke-width="5"/>
<path d="M191.5 142.09L202.256 175.195L202.818 176.923H204.634L239.443 176.923L211.282 197.382L209.812 198.45L210.374 200.178L221.13 233.282L192.969 212.822L191.5 211.755L190.031 212.822L161.87 233.282L172.626 200.178L173.188 198.45L171.718 197.382L143.557 176.923L178.366 176.923H180.182L180.744 175.195L191.5 142.09Z" stroke="black" stroke-width="5"/>
</svg>
