<svg width="161" height="60" viewBox="0 0 161 60" fill="none" xmlns="http://www.w3.org/2000/svg">
<path d="M7.78451 16.2818H4.62934V28.8382H0V0.268555H4.62934V11.7112H7.78451V0.268555H12.4139V28.8363H7.78451V16.2818Z" fill="black"/>
<path d="M20.32 29.1436H19.4177C15.7313 29.1436 13.7644 27.2621 13.7644 23.7292V18.0088H18.3531V23.0013C18.3531 24.3069 18.8033 24.9987 19.8698 24.9987C20.9749 24.9987 21.3845 24.3069 21.3845 22.5414V21.8895C21.3845 19.8541 21.1797 19.1243 19.5008 17.089L16.5505 13.5541C14.5836 11.1747 14.0118 9.33127 14.0118 6.49008V5.56835C14.0118 1.76553 16.0598 0 19.7056 0H20.5674C24.3774 0 25.8516 1.57358 25.8516 4.9526V9.63724H21.3866V5.52844C21.3866 4.56871 21.1818 3.83893 20.0767 3.83893C18.9716 3.83893 18.7242 4.49079 18.7242 5.83632V6.37415C18.7242 7.98764 19.0527 8.86946 20.6079 10.7509L23.5582 14.3219C25.6468 16.8552 26.3017 18.3148 26.3017 21.5398V22.4616C26.3017 26.6483 24.3754 29.1436 20.32 29.1436Z" fill="black"/>
<path d="M38.1416 0.268555V4.41537H32.2409V11.9032H36.8702V16.2419H32.2409V24.4976H38.3869V28.8363H27.6116V0.268555H38.1416Z" fill="black"/>
<path d="M50.884 23.4618H47.524L46.9096 28.8382H42.771L46.5 0.268555H51.9891L55.9635 28.8363H51.4984L50.884 23.4618ZM50.3913 19.1991L49.1625 8.64009L47.9742 19.1991H50.3913Z" fill="black"/>
<path d="M61.33 28.8363H56.7007V0.268555H64.1972C67.2692 0.268555 68.8265 1.49815 68.8265 4.68333V9.75187C68.8265 12.1331 67.6382 13.0549 66.819 13.3989C67.843 13.8208 68.8265 14.5885 68.8265 16.5099V26.5311C68.8265 27.6827 69.0718 28.2206 69.2766 28.6425V28.8344H64.6879C64.4831 28.5265 64.2377 28.0286 64.2377 26.493V17.8934C64.2377 16.6258 63.9924 16.088 62.5182 16.088H61.33V28.8363ZM61.33 12.0191H62.5588C63.8301 12.0191 64.2377 11.2513 64.2377 9.98372V5.99085C64.2377 4.76125 63.9518 4.1474 62.5588 4.1474H61.33V12.0191Z" fill="black"/>
<path d="M78.1696 4.41537V28.8363H73.5809V4.41537H69.6897V0.268555H82.0629V4.41537H78.1696Z" fill="black"/>
<path d="M94.5143 23.4618H91.1544L90.54 28.8382H86.4014L90.1304 0.268555H95.6194L99.5938 28.8363H95.1287L94.5143 23.4618ZM94.0236 19.1991L92.7948 8.64009L91.6066 19.1991H94.0236Z" fill="black"/>
<path d="M104.511 0.268555L108.485 15.5901V0.268555H112.705V28.8363H108.936L104.511 12.403V28.8363H100.332V0.268555H104.511Z" fill="black"/>
<path d="M114.427 0.268555H121.514C125.488 0.268555 126.717 2.37996 126.717 5.75898V23.152C126.717 26.6469 125.324 28.8344 121.514 28.8344H114.427V0.268555ZM119.056 24.6895H120.161C121.555 24.6895 121.964 23.9977 121.964 22.4621V6.37473C121.964 4.72323 121.514 4.14739 120.366 4.14739H119.056V24.6895Z" fill="black"/>
<path d="M0 30.585H7.19695C11.233 30.585 12.4809 32.7292 12.4809 36.1607V53.8238C12.4809 57.3731 11.0662 59.5945 7.19695 59.5945H0V30.585ZM4.70118 55.3852H5.82551C7.24019 55.3852 7.65615 54.6827 7.65615 53.1232V36.784C7.65615 35.1069 7.19901 34.5221 6.03349 34.5221H4.70118V55.3852Z" fill="black"/>
<path d="M24.8387 30.585V34.7962H18.8484V42.4003H23.5496V46.8064H18.8484V55.1902H25.0899V59.5963H14.1472V30.585H24.8387Z" fill="black"/>
<path d="M32.5772 59.9082H31.6608C27.9171 59.9082 25.9197 57.9975 25.9197 54.4097V48.6004H30.5797V53.6705C30.5797 54.9964 31.0369 55.6989 32.1179 55.6989C33.2402 55.6989 33.6582 54.9964 33.6582 53.2034V52.5415C33.6582 50.4744 33.4503 49.7333 31.7452 47.6663L28.7491 44.0785C26.7516 41.6603 26.1688 39.7882 26.1688 36.9029V35.9668C26.1688 32.1069 28.2487 30.312 31.9511 30.312H32.8243C36.6935 30.312 38.1906 31.91 38.1906 35.3415V40.0989H33.6562V35.9263C33.6562 34.9517 33.4482 34.2106 32.3239 34.2106C31.2016 34.2106 30.9504 34.8725 30.9504 36.239V36.7851C30.9504 38.4237 31.284 39.3192 32.8634 41.2299L35.8596 44.8563C37.9806 47.429 38.6477 48.9112 38.6477 52.1863V53.1224C38.6519 57.3741 36.6977 59.9082 32.5772 59.9082Z" fill="black"/>
<path d="M44.683 59.5963H39.9819V30.585H44.683V59.5963Z" fill="black"/>
<path d="M50.8001 59.9873C48.0552 59.9873 46.3069 57.6868 46.3069 54.6838V36.5516C46.3069 33.3151 47.6392 30.312 52.0892 30.312H53.0055C58.0403 30.312 58.623 33.3923 58.623 36.8238V39.7863H54.0475V36.513C54.0475 35.2257 53.7139 34.5232 52.5504 34.5232C51.5517 34.5232 51.0946 35.2257 51.0946 36.513V53.4756C51.0946 54.8401 51.6773 55.5426 52.6328 55.5426C53.8395 55.5426 54.3811 54.7629 54.3811 53.6705V46.4177H52.2601V41.9729H58.8331V59.5975H56.1705C56.1293 59.4412 55.7546 57.9995 55.3798 56.7508C55.0462 57.7254 53.4668 59.9873 51.0946 59.9873H50.8001Z" fill="black"/>
<path d="M64.6964 30.585L68.7325 46.1444V30.585H73.0177V59.5963H69.1896L64.6964 42.9079V59.5963H60.4524V30.585H64.6964Z" fill="black"/>
<path d="M85.2915 59.9082H84.3751C80.6315 59.9082 78.634 57.9975 78.634 54.4097V48.6004H83.294V53.6705C83.294 54.9964 83.7512 55.6989 84.8343 55.6989C85.9566 55.6989 86.3726 54.9964 86.3726 53.2034V52.5415C86.3726 50.4744 86.1646 49.7333 84.4595 47.6663L81.4634 44.0785C79.466 41.6603 78.8832 39.7882 78.8832 36.9029V35.9668C78.8832 32.1069 80.963 30.312 84.6655 30.312H85.5406C89.4099 30.312 90.9069 31.91 90.9069 35.3415V40.0989H86.3726V35.9263C86.3726 34.9517 86.1646 34.2106 85.0423 34.2106C83.92 34.2106 83.6688 34.8725 83.6688 36.239V36.7851C83.6688 38.4237 84.0024 39.3192 85.5818 41.2299L88.578 44.8563C90.699 47.429 91.3641 48.9112 91.3641 52.1863V53.1224C91.3661 57.3741 89.4099 59.9082 85.2915 59.9082Z" fill="black"/>
<path d="M100.393 53.7092V46.9639H105.012V53.6706C105.012 56.7894 103.931 59.9488 99.3945 59.9488H98.3545C93.6122 59.9488 92.5723 56.7508 92.5723 53.8269V36.1232C92.5723 33.1607 93.9458 30.314 98.1878 30.314H99.2688C104.427 30.314 105.01 33.5119 105.01 36.3587V41.5445H100.391V36.4359C100.391 35.1872 99.9752 34.5252 98.8096 34.5252C97.6441 34.5252 97.3538 35.1486 97.3538 36.4359V53.6706C97.3538 54.9579 97.8109 55.6584 98.8508 55.6584C99.9772 55.6584 100.393 54.8787 100.393 53.7092Z" fill="black"/>
<path d="M114.414 46.847H111.21V59.5983H106.509V30.585H111.21V42.2054H114.414V30.585H119.115V59.5964H114.414V46.847Z" fill="black"/>
<path d="M133.594 53.1243C133.594 57.1792 132.138 59.9487 127.603 59.9487H126.813C122.319 59.9487 120.738 57.1811 120.738 53.1243V36.9801C120.738 32.9638 122.361 30.312 126.769 30.312H127.56C132.136 30.312 133.592 32.9638 133.592 36.9415V53.1243H133.594ZM128.81 36.7465C128.81 35.2257 128.269 34.5232 127.187 34.5232C125.981 34.5232 125.524 35.2643 125.524 36.7465V53.435C125.524 54.6837 125.898 55.6584 127.229 55.6584C128.476 55.6584 128.81 54.6837 128.81 53.435V36.7465Z" fill="black"/>
<path d="M147.948 53.1243C147.948 57.1792 146.492 59.9487 141.956 59.9487H141.165C136.672 59.9487 135.091 57.1811 135.091 53.1243V36.9801C135.091 32.9638 136.713 30.312 141.124 30.312H141.915C146.49 30.312 147.946 32.9638 147.946 36.9415V53.1243H147.948ZM143.163 36.7465C143.163 35.2257 142.621 34.5232 141.54 34.5232C140.333 34.5232 139.876 35.2643 139.876 36.7465V53.435C139.876 54.6837 140.249 55.6584 141.581 55.6584C142.829 55.6584 143.163 54.6837 143.163 53.435V36.7465Z" fill="black"/>
<path d="M154.27 30.585V55.1111H160.011V59.5945H149.569V30.585H154.27Z" fill="black"/>
</svg>
