<svg width="161" height="60" viewBox="0 0 161 60" fill="none" xmlns="http://www.w3.org/2000/svg">
<path d="M7.78451 16.2818H4.62934V28.8382H0V0.268555H4.62934V11.7112H7.78451V0.268555H12.4139V28.8363H7.78451V16.2818Z" fill="#E8E8E8"/>
<path d="M20.32 29.1436H19.4177C15.7313 29.1436 13.7644 27.2621 13.7644 23.7292V18.0088H18.3531V23.0013C18.3531 24.3069 18.8033 24.9987 19.8698 24.9987C20.9749 24.9987 21.3845 24.3069 21.3845 22.5414V21.8895C21.3845 19.8541 21.1797 19.1243 19.5008 17.089L16.5505 13.5541C14.5836 11.1747 14.0118 9.33127 14.0118 6.49008V5.56835C14.0118 1.76553 16.0598 0 19.7056 0H20.5674C24.3774 0 25.8516 1.57358 25.8516 4.9526V9.63724H21.3866V5.52844C21.3866 4.56871 21.1818 3.83893 20.0767 3.83893C18.9716 3.83893 18.7242 4.49079 18.7242 5.83632V6.37415C18.7242 7.98764 19.0527 8.86946 20.6079 10.7509L23.5582 14.3219C25.6468 16.8552 26.3017 18.3148 26.3017 21.5398V22.4616C26.3017 26.6483 24.3754 29.1436 20.32 29.1436Z" fill="#E8E8E8"/>
<path d="M38.1416 0.268555V4.41537H32.2409V11.9032H36.8702V16.2419H32.2409V24.4976H38.3869V28.8363H27.6116V0.268555H38.1416Z" fill="#E8E8E8"/>
<path d="M50.884 23.4618H47.524L46.9096 28.8382H42.771L46.5 0.268555H51.9891L55.9635 28.8363H51.4984L50.884 23.4618ZM50.3913 19.1991L49.1625 8.64009L47.9742 19.1991H50.3913Z" fill="#E8E8E8"/>
<path d="M61.33 28.8363H56.7007V0.268555H64.1972C67.2692 0.268555 68.8265 1.49815 68.8265 4.68333V9.75187C68.8265 12.1331 67.6382 13.0549 66.819 13.3989C67.843 13.8208 68.8265 14.5885 68.8265 16.5099V26.5311C68.8265 27.6827 69.0718 28.2206 69.2766 28.6425V28.8344H64.6879C64.4831 28.5265 64.2377 28.0286 64.2377 26.493V17.8934C64.2377 16.6258 63.9924 16.088 62.5182 16.088H61.33V28.8363ZM61.33 12.0191H62.5588C63.8301 12.0191 64.2377 11.2513 64.2377 9.98372V5.99085C64.2377 4.76125 63.9518 4.1474 62.5588 4.1474H61.33V12.0191Z" fill="#E8E8E8"/>
<path d="M78.1696 4.41537V28.8363H73.5809V4.41537H69.6897V0.268555H82.0629V4.41537H78.1696Z" fill="#E8E8E8"/>
<path d="M94.5143 23.4618H91.1544L90.54 28.8382H86.4014L90.1304 0.268555H95.6194L99.5938 28.8363H95.1287L94.5143 23.4618ZM94.0236 19.1991L92.7948 8.64009L91.6066 19.1991H94.0236Z" fill="#E8E8E8"/>
<path d="M104.511 0.268555L108.485 15.5901V0.268555H112.705V28.8363H108.936L104.511 12.403V28.8363H100.332V0.268555H104.511Z" fill="#E8E8E8"/>
<path d="M114.427 0.268555H121.514C125.488 0.268555 126.717 2.37996 126.717 5.75898V23.152C126.717 26.6469 125.324 28.8344 121.514 28.8344H114.427V0.268555ZM119.056 24.6895H120.161C121.555 24.6895 121.964 23.9977 121.964 22.4621V6.37473C121.964 4.72323 121.514 4.14739 120.366 4.14739H119.056V24.6895Z" fill="#E8E8E8"/>
<path d="M0 30.585H7.19695C11.233 30.585 12.4809 32.7292 12.4809 36.1607V53.8238C12.4809 57.3731 11.0662 59.5945 7.19695 59.5945H0V30.585ZM4.70118 55.3852H5.82551C7.24019 55.3852 7.65615 54.6827 7.65615 53.1232V36.784C7.65615 35.1069 7.19901 34.5221 6.03349 34.5221H4.70118V55.3852Z" fill="#E8E8E8"/>
<path d="M24.8387 30.585V34.7962H18.8484V42.4003H23.5496V46.8064H18.8484V55.1902H25.0899V59.5963H14.1472V30.585H24.8387Z" fill="#E8E8E8"/>
<path d="M32.5772 59.9087H31.6608C27.9171 59.9087 25.9197 57.998 25.9197 54.4102V48.6009H30.5797V53.671C30.5797 54.9969 31.0369 55.6994 32.1179 55.6994C33.2402 55.6994 33.6582 54.9969 33.6582 53.2039V52.5419C33.6582 50.4749 33.4503 49.7338 31.7452 47.6668L28.7491 44.079C26.7516 41.6607 26.1688 39.7887 26.1688 36.9034V35.9673C26.1688 32.1074 28.2487 30.3125 31.9511 30.3125H32.8243C36.6935 30.3125 38.1906 31.9105 38.1906 35.342V40.0994H33.6562V35.9268C33.6562 34.9522 33.4482 34.211 32.3239 34.211C31.2016 34.211 30.9504 34.873 30.9504 36.2395V36.7856C30.9504 38.4242 31.284 39.3197 32.8634 41.2304L35.8596 44.8568C37.9806 47.4294 38.6477 48.9117 38.6477 52.1868V53.1229C38.6519 57.3746 36.6977 59.9087 32.5772 59.9087Z" fill="#E8E8E8"/>
<path d="M44.683 59.5963H39.9819V30.585H44.683V59.5963Z" fill="#E8E8E8"/>
<path d="M50.8001 59.9878C48.0552 59.9878 46.3069 57.6873 46.3069 54.6842V36.5521C46.3069 33.3155 47.6392 30.3125 52.0892 30.3125H53.0055C58.0403 30.3125 58.6231 33.3927 58.6231 36.8242V39.7868H54.0475V36.5135C54.0475 35.2262 53.7139 34.5237 52.5504 34.5237C51.5517 34.5237 51.0946 35.2262 51.0946 36.5135V53.4761C51.0946 54.8406 51.6773 55.5431 52.6328 55.5431C53.8395 55.5431 54.3811 54.7634 54.3811 53.671V46.4182H52.2601V41.9734H58.8331V59.598H56.1705C56.1293 59.4416 55.7546 57.9999 55.3798 56.7513C55.0462 57.7259 53.4668 59.9878 51.0946 59.9878H50.8001Z" fill="#E8E8E8"/>
<path d="M64.6964 30.585L68.7325 46.1444V30.585H73.0177V59.5963H69.1896L64.6964 42.9079V59.5963H60.4524V30.585H64.6964Z" fill="#E8E8E8"/>
<path d="M85.2915 59.9087H84.3751C80.6315 59.9087 78.634 57.998 78.634 54.4102V48.6009H83.294V53.671C83.294 54.9969 83.7512 55.6994 84.8343 55.6994C85.9566 55.6994 86.3726 54.9969 86.3726 53.2039V52.5419C86.3726 50.4749 86.1646 49.7338 84.4595 47.6668L81.4634 44.079C79.466 41.6607 78.8832 39.7887 78.8832 36.9034V35.9673C78.8832 32.1074 80.963 30.3125 84.6655 30.3125H85.5406C89.4099 30.3125 90.9069 31.9105 90.9069 35.342V40.0994H86.3726V35.9268C86.3726 34.9522 86.1646 34.211 85.0423 34.211C83.92 34.211 83.6688 34.873 83.6688 36.2395V36.7856C83.6688 38.4242 84.0024 39.3197 85.5818 41.2304L88.578 44.8568C90.699 47.4294 91.3641 48.9117 91.3641 52.1868V53.1229C91.3661 57.3746 89.4099 59.9087 85.2915 59.9087Z" fill="#E8E8E8"/>
<path d="M100.393 53.7097V46.9644H105.012V53.6711C105.012 56.7899 103.931 59.9493 99.3945 59.9493H98.3545C93.6122 59.9493 92.5723 56.7513 92.5723 53.8274V36.1237C92.5723 33.1612 93.9458 30.3145 98.1878 30.3145H99.2688C104.427 30.3145 105.01 33.5124 105.01 36.3591V41.545H100.391V36.4363C100.391 35.1877 99.9752 34.5257 98.8096 34.5257C97.6441 34.5257 97.3538 35.1491 97.3538 36.4363V53.6711C97.3538 54.9584 97.8109 55.6589 98.8508 55.6589C99.9772 55.6589 100.393 54.8792 100.393 53.7097Z" fill="#E8E8E8"/>
<path d="M114.414 46.847H111.21V59.5983H106.509V30.585H111.21V42.2054H114.414V30.585H119.115V59.5964H114.414V46.847Z" fill="#E8E8E8"/>
<path d="M133.594 53.1248C133.594 57.1797 132.138 59.9492 127.603 59.9492H126.813C122.319 59.9492 120.738 57.1816 120.738 53.1248V36.9806C120.738 32.9643 122.361 30.3125 126.769 30.3125H127.56C132.136 30.3125 133.592 32.9643 133.592 36.942V53.1248H133.594ZM128.81 36.747C128.81 35.2262 128.269 34.5237 127.187 34.5237C125.981 34.5237 125.524 35.2648 125.524 36.747V53.4355C125.524 54.6842 125.898 55.6589 127.229 55.6589C128.476 55.6589 128.81 54.6842 128.81 53.4355V36.747Z" fill="#E8E8E8"/>
<path d="M147.948 53.1248C147.948 57.1797 146.492 59.9492 141.956 59.9492H141.165C136.672 59.9492 135.091 57.1816 135.091 53.1248V36.9806C135.091 32.9643 136.713 30.3125 141.124 30.3125H141.915C146.49 30.3125 147.946 32.9643 147.946 36.942V53.1248H147.948ZM143.163 36.747C143.163 35.2262 142.621 34.5237 141.54 34.5237C140.333 34.5237 139.876 35.2648 139.876 36.747V53.4355C139.876 54.6842 140.249 55.6589 141.581 55.6589C142.829 55.6589 143.163 54.6842 143.163 53.4355V36.747Z" fill="#E8E8E8"/>
<path d="M154.27 30.585V55.1111H160.011V59.5945H149.569V30.585H154.27Z" fill="#E8E8E8"/>
</svg>
