<svg width="87" height="87" viewBox="0 0 87 87" fill="none" xmlns="http://www.w3.org/2000/svg">
<circle cx="43.5" cy="43.5" r="41" stroke="black" stroke-width="5"/>
<mask id="path-2-inside-1_776_372" fill="white">
<rect x="18.8506" y="48.4922" width="49.3" height="12.8361" rx="3"/>
</mask>
<rect x="18.8506" y="48.4922" width="49.3" height="12.8361" rx="3" stroke="black" stroke-width="10" mask="url(#path-2-inside-1_776_372)"/>
<path d="M43.1314 18.1853L65.4738 40.8616C65.576 40.9653 65.6065 41.0515 65.6177 41.1183C65.6312 41.1986 65.6229 41.3005 65.5789 41.4056C65.5349 41.5107 65.4682 41.5881 65.4015 41.6349C65.346 41.6738 65.2632 41.7125 65.1177 41.7125L20.4327 41.7125C20.2872 41.7125 20.2044 41.6738 20.1489 41.6349C20.0822 41.5881 20.0155 41.5107 19.9715 41.4056C19.9275 41.3005 19.9192 41.1986 19.9327 41.1183C19.9439 41.0515 19.9744 40.9653 20.0766 40.8616L42.419 18.1853C42.6149 17.9865 42.9355 17.9865 43.1314 18.1853Z" stroke="black" stroke-width="5"/>
</svg>
