<svg width="407" height="256" viewBox="0 0 407 256" fill="none" xmlns="http://www.w3.org/2000/svg">
<rect x="2" y="2" width="402.629" height="251.596" rx="2" fill="#3E3E3E" stroke="black" stroke-width="4"/>
<rect x="25.6582" y="25.6392" width="355.312" height="164.427" rx="2" fill="#EFB4B6" stroke="black" stroke-width="4"/>
<rect x="37.4878" y="37.458" width="331.654" height="53.6198" rx="2" fill="white" stroke="black" stroke-width="4"/>
<rect x="72.9751" y="100.988" width="260.679" height="55.0972" rx="2" fill="#3E3E3E" stroke="black" stroke-width="4"/>
<rect x="179.438" y="100.988" width="47.7528" height="55.0972" rx="2" fill="#3E3E3E" stroke="black" stroke-width="4"/>
<path d="M315.91 128.537C315.91 143.75 303.567 156.086 288.337 156.086C273.107 156.086 260.764 143.75 260.764 128.537C260.764 113.324 273.107 100.988 288.337 100.988C303.567 100.988 315.91 113.324 315.91 128.537Z" fill="#292929" stroke="black" stroke-width="4"/>
<path d="M145.865 128.537C145.865 143.75 133.522 156.086 118.292 156.086C103.063 156.086 90.7192 143.75 90.7192 128.537C90.7192 113.324 103.063 100.988 118.292 100.988C133.522 100.988 145.865 113.324 145.865 128.537Z" fill="#292929" stroke="black" stroke-width="4"/>
<path d="M150.36 71.3526C150.308 71.3874 150.238 71.3876 150.152 71.3531C150.065 71.336 149.969 71.2842 149.865 71.1978C149.761 71.1287 149.648 71.0423 149.527 70.9386C149.457 70.8695 149.414 70.7916 149.396 70.705C149.378 70.601 149.395 70.4276 149.447 70.1848C149.498 69.942 149.575 69.5519 149.678 69.0143C149.746 68.6674 149.823 68.3206 149.909 67.9737C149.995 67.6268 150.072 67.3406 150.141 67.1151C150.21 66.8723 150.244 66.7509 150.244 66.7509C150.331 66.716 150.452 66.4557 150.606 65.97C150.778 65.4842 150.968 64.8944 151.174 64.2006C151.243 63.9577 151.363 63.5501 151.535 62.9777C151.707 62.4052 151.879 61.8501 152.051 61.3124C152.206 60.8093 152.334 60.3583 152.437 59.9594C152.54 59.5432 152.592 59.335 152.592 59.335C152.592 59.335 152.462 59.4134 152.203 59.57C151.96 59.7093 151.649 59.9007 151.268 60.1443C150.887 60.3706 150.515 60.6228 150.152 60.9011C149.858 61.0751 149.503 61.3187 149.088 61.6317C148.69 61.9447 148.335 62.1969 148.023 62.3883C147.556 62.7535 147.271 62.9622 147.167 63.0144C147.063 63.0494 146.933 63.0237 146.777 62.9374C146.551 62.7473 146.395 62.5484 146.307 62.3406C146.237 62.1327 146.254 61.942 146.358 61.7684C146.393 61.751 146.496 61.6814 146.669 61.5597C146.86 61.4379 147.067 61.2987 147.292 61.1421C147.517 60.9856 147.725 60.8377 147.915 60.6986C148.123 60.5594 148.27 60.4637 148.357 60.4115C148.409 60.4114 148.504 60.3505 148.642 60.2288C148.78 60.1071 148.928 59.9941 149.083 59.8897C149.17 59.7855 149.472 59.5507 149.992 59.1855C150.511 58.8202 151.073 58.4115 151.679 57.9593C152.319 57.559 152.855 57.237 153.288 56.9933C153.738 56.7495 153.998 56.6362 154.067 56.6534C154.119 56.6533 154.197 56.6877 154.302 56.7568C154.423 56.8258 154.536 56.9122 154.64 57.016C154.744 57.1197 154.805 57.2236 154.823 57.3275C154.927 57.4486 154.876 57.7261 154.669 58.1599C154.6 58.3161 154.488 58.6023 154.333 59.0187C154.178 59.4178 154.006 59.8862 153.817 60.424C153.645 60.9444 153.473 61.4649 153.3 61.9853C153.146 62.4883 153.017 62.922 152.914 63.2863C152.776 63.8239 152.647 64.2402 152.527 64.5352C152.424 64.8301 152.32 65.1164 152.217 65.394C152.131 65.6542 152.028 66.0184 151.908 66.4867C151.787 66.7644 151.658 67.12 151.52 67.5537C151.4 67.97 151.288 68.3863 151.185 68.8025C151.082 69.2015 151.005 69.531 150.954 69.7911C150.816 70.1728 150.704 70.5111 150.618 70.8059C150.532 71.1008 150.446 71.283 150.36 71.3526ZM159.465 71.5381C159.257 71.5039 159.075 71.3917 158.918 71.2014C158.762 71.0112 158.631 70.7948 158.527 70.5524C158.457 70.2232 158.594 69.6509 158.939 68.8354C159.283 68.0025 159.749 67.0307 160.335 65.9199C160.715 65.295 160.896 64.9305 160.879 64.8266C160.861 64.7226 160.696 64.671 160.384 64.6718C160.228 64.6375 160.046 64.6033 159.838 64.5692C159.63 64.5177 159.5 64.4573 159.448 64.3881C159.17 64.2501 159.005 64.1032 158.952 63.9473C158.917 63.7741 158.978 63.6786 159.134 63.6609C159.203 63.6261 159.229 63.5827 159.211 63.5307C159.194 63.4614 159.194 63.4007 159.211 63.3487C159.263 63.3312 159.324 63.3311 159.393 63.3482C159.48 63.3654 159.566 63.3825 159.653 63.3996C159.896 63.399 160.078 63.3986 160.199 63.3983C160.32 63.398 160.476 63.3976 160.667 63.3971C160.754 63.3969 160.858 63.3966 160.979 63.3963C161.118 63.396 161.239 63.4044 161.343 63.4214C161.586 63.4555 161.751 63.4378 161.837 63.3682C161.923 63.2813 162.088 63.0816 162.33 62.769C162.468 62.526 162.683 62.2048 162.977 61.8054C163.271 61.3887 163.53 60.9634 163.754 60.5295C164.583 59.3487 165.04 58.5589 165.126 58.1601C165.229 57.7611 165.029 57.5796 164.527 57.6155C164.249 57.6336 163.938 57.695 163.591 57.7999C163.262 57.9047 162.769 58.0792 162.111 58.3235C161.47 58.6024 161.02 58.7769 160.76 58.8469C160.517 58.8995 160.301 58.874 160.11 58.7705C160.006 58.7534 159.919 58.7016 159.849 58.6151C159.797 58.5112 159.762 58.3987 159.744 58.2774C159.744 58.1387 159.752 58.0087 159.769 57.8873C159.804 57.6965 160.158 57.4877 160.834 57.2607C161.509 57.0337 162.289 56.8064 163.172 56.5789C163.571 56.5086 163.952 56.4643 164.316 56.4461C164.68 56.4278 164.992 56.4444 165.252 56.4958C165.529 56.5471 165.703 56.642 165.773 56.7805C165.773 56.7805 165.79 56.8064 165.825 56.8583C165.877 56.8929 165.912 56.8755 165.929 56.8061C165.998 56.8232 166.05 56.8924 166.085 57.0137C166.12 57.1176 166.19 57.2561 166.294 57.4292C166.468 57.7234 166.573 57.9398 166.608 58.0784C166.66 58.2169 166.661 58.4163 166.609 58.6764C166.558 58.8672 166.472 59.0581 166.351 59.249C166.23 59.44 166.135 59.5616 166.066 59.6138C165.979 59.6833 165.91 59.7615 165.858 59.8483C165.824 59.935 165.807 59.9784 165.807 59.9784C165.789 60.0478 165.738 60.1172 165.651 60.1868C165.565 60.239 165.478 60.3172 165.392 60.4214C165.375 60.4908 165.331 60.5689 165.262 60.6557C165.211 60.7425 165.176 60.812 165.159 60.864C165.142 60.8814 165.072 60.9855 164.952 61.1765C164.831 61.3675 164.684 61.5932 164.511 61.8536C164.339 62.114 164.175 62.3571 164.019 62.5828C163.881 62.7912 163.786 62.9387 163.734 63.0255C163.492 63.2515 163.371 63.4164 163.371 63.5204C163.372 63.6244 163.485 63.7281 163.71 63.8316C164.005 63.9522 164.248 64.0989 164.439 64.2718C164.63 64.4273 164.761 64.6263 164.831 64.8688C164.849 65.2154 164.806 65.4149 164.702 65.4671C164.616 65.5887 164.477 65.641 164.287 65.6242C164.113 65.6073 164 65.5642 163.948 65.495C163.896 65.3911 163.774 65.2961 163.584 65.2099C163.41 65.1063 163.236 65.0288 163.063 64.9772C162.89 64.9256 162.777 64.8999 162.725 64.9C162.656 64.9349 162.586 65.0044 162.517 65.1085C162.448 65.1954 162.37 65.2909 162.284 65.3951C162.163 65.5687 161.999 65.8551 161.792 66.2543C161.602 66.6361 161.404 67.018 161.197 67.3998C161.007 67.7643 160.861 68.0333 160.757 68.2069C160.74 68.2936 160.688 68.3804 160.602 68.4673C160.533 68.5541 160.481 68.6582 160.446 68.7797C160.377 68.9012 160.317 69.0833 160.266 69.3261C160.214 69.5516 160.189 69.7596 160.189 69.9503C160.19 70.1236 160.216 70.2189 160.268 70.2361C160.407 70.2011 160.502 70.2182 160.554 70.2874C160.624 70.3392 160.676 70.4344 160.711 70.573C160.798 70.6941 160.772 70.8415 160.634 71.0152C160.496 71.1715 160.314 71.302 160.089 71.4066C159.864 71.5284 159.656 71.5723 159.465 71.5381ZM169.398 69.6936C169.069 69.8157 168.792 69.877 168.566 69.8776C168.358 69.8608 168.124 69.7574 167.863 69.5673C167.533 69.2562 167.42 68.9444 167.523 68.6322C167.644 68.3025 167.929 67.9812 168.379 67.6681C168.69 67.4766 168.915 67.3721 169.054 67.3544C169.21 67.3367 169.444 67.3968 169.756 67.5347C170.277 67.8627 170.503 68.2261 170.435 68.625C170.384 69.0238 170.038 69.38 169.398 69.6936ZM177.856 70.4787C177.735 70.479 177.544 70.4274 177.284 70.3241C177.041 70.2033 176.78 70.0653 176.503 69.91C176.225 69.7374 175.999 69.5732 175.825 69.4177C175.443 69.0546 175.121 68.6134 174.86 68.0941C174.599 67.5747 174.415 67.0205 174.31 66.4314C174.204 65.825 174.194 65.2444 174.28 64.6895C174.468 63.5797 174.881 62.4866 175.52 61.4104C176.158 60.3168 176.893 59.4137 177.723 58.701C178.173 58.3012 178.579 57.9968 178.943 57.7879C179.306 57.5617 179.748 57.3873 180.267 57.2647C180.458 57.2122 180.666 57.1857 180.891 57.1851C181.116 57.1672 181.29 57.1581 181.411 57.1578C181.758 57.157 182.105 57.2255 182.452 57.3633C182.799 57.5011 183.094 57.6737 183.337 57.8811C183.58 58.0711 183.702 58.2528 183.702 58.4262C183.703 58.5475 183.694 58.6429 183.677 58.7122C183.66 58.7643 183.582 58.7558 183.443 58.6868L183.183 58.6875L183.445 59.4408C183.514 59.5793 183.576 59.7698 183.628 60.0124C183.681 60.2376 183.707 60.4455 183.708 60.6362C183.708 60.7922 183.683 61.0436 183.632 61.3904C183.58 61.7198 183.512 62.0753 183.426 62.4569C183.34 62.8384 183.255 63.194 183.169 63.5235C183.083 63.8531 183.006 64.0959 182.937 64.2521C182.885 64.3562 182.85 64.4603 182.833 64.5643C182.834 64.651 182.834 64.729 182.834 64.7983C182.765 64.9198 182.653 65.1541 182.498 65.5012C182.36 65.8482 182.257 66.0911 182.188 66.2299C182.118 66.2994 182.058 66.3603 182.006 66.4124C181.971 66.4645 181.989 66.5251 182.058 66.5943C182.059 66.6289 182.015 66.7417 181.929 66.9326C181.843 67.1061 181.748 67.271 181.644 67.4273C181.558 67.5835 181.489 67.6617 181.437 67.6618C181.437 67.6618 181.411 67.6705 181.359 67.688C181.324 67.6881 181.307 67.7141 181.307 67.7661C181.307 67.8355 181.195 68.0177 180.971 68.313C180.746 68.5908 180.478 68.8862 180.167 69.1989C179.994 69.3727 179.752 69.564 179.44 69.7727C179.146 69.9641 178.852 70.1295 178.558 70.2689C178.263 70.4083 178.029 70.4782 177.856 70.4787ZM177.774 68.8409C177.965 68.8404 178.147 68.8139 178.32 68.7615C178.493 68.6917 178.64 68.596 178.761 68.4744C179.073 68.2656 179.436 67.9267 179.851 67.4577C180.265 66.9714 180.568 66.5026 180.757 66.0515C180.947 65.791 181.094 65.522 181.197 65.2444C181.318 64.9494 181.498 64.455 181.739 63.761C181.878 63.57 181.972 63.3358 182.024 63.0583C182.075 62.7809 182.1 62.5468 182.1 62.3561C182.099 62.1655 182.099 61.9055 182.098 61.5762C182.115 61.2468 182.157 60.9693 182.226 60.7438C182.225 60.2932 182.215 59.9985 182.198 59.8599C182.18 59.7039 182.11 59.5568 181.989 59.4184C181.919 59.3666 181.824 59.3148 181.702 59.2631C181.598 59.2114 181.485 59.1857 181.364 59.186C181.243 59.1863 181.018 59.2561 180.689 59.3956C180.36 59.5178 180.126 59.6224 179.987 59.7094C179.866 59.779 179.728 59.788 179.571 59.7364C179.433 59.6847 179.363 59.6156 179.363 59.5289C179.362 59.2862 179.206 59.2693 178.895 59.4781C178.583 59.6695 178.237 59.9997 177.857 60.4686C177.546 60.7814 177.278 61.1027 177.054 61.4326C176.846 61.7451 176.743 61.936 176.743 62.0054C176.743 62.0747 176.717 62.1614 176.666 62.2656C176.614 62.3697 176.562 62.4912 176.511 62.63C176.424 62.7515 176.321 62.9511 176.2 63.2287C176.079 63.5064 175.959 63.784 175.838 64.0616C175.735 64.3219 175.666 64.5214 175.632 64.6601C175.632 64.7295 175.632 64.9201 175.633 65.2321C175.634 65.5268 175.634 65.8041 175.635 66.0641C175.636 66.3588 175.645 66.6101 175.663 66.8181C175.698 67.026 175.742 67.2079 175.794 67.3637C175.847 67.5023 175.916 67.6581 176.003 67.8312C176.073 67.9524 176.177 68.0995 176.317 68.2725C176.473 68.4281 176.577 68.5405 176.629 68.6097C176.82 68.7825 176.977 68.8862 177.098 68.9205C177.22 68.9376 177.445 68.911 177.774 68.8409ZM186.415 70.4055C186.346 70.371 186.241 70.3106 186.103 70.2243C185.981 70.1206 185.851 70.0082 185.712 69.8873C185.59 69.7489 185.503 69.6278 185.451 69.5239C185.399 69.4374 185.398 69.2814 185.45 69.0559C185.518 68.8304 185.587 68.7176 185.657 68.7174C185.709 68.7519 185.795 68.691 185.916 68.5347C186.037 68.3784 186.158 68.2135 186.279 68.0398C186.4 67.8489 186.46 67.7361 186.46 67.7014C186.477 67.632 186.521 67.5799 186.59 67.5451C186.676 67.4929 186.754 67.4407 186.823 67.3885C186.91 67.2496 187.022 67.1107 187.16 66.9717C187.316 66.8153 187.437 66.685 187.523 66.5808C187.662 66.4071 187.912 66.1465 188.276 65.7989C188.639 65.4513 188.993 65.0951 189.339 64.7303C189.702 64.3307 190.022 63.9833 190.298 63.6879C190.575 63.3752 190.722 63.1582 190.739 63.0368C190.739 63.0368 190.765 63.0107 190.817 62.9586C190.886 62.8891 190.964 62.8283 191.05 62.776C191.137 62.7238 191.249 62.6369 191.387 62.5152C191.543 62.3935 191.673 62.2805 191.777 62.1762C191.811 62.0375 191.906 61.8466 192.061 61.6035C192.234 61.3431 192.407 61.126 192.58 60.9523C192.718 60.7439 192.847 60.5183 192.968 60.2753C193.089 60.015 193.166 59.8241 193.2 59.7027C193.252 59.5119 193.252 59.3993 193.2 59.3647C193.148 59.3128 192.931 59.2267 192.549 59.1063C192.133 58.9687 191.673 58.9178 191.171 58.9537C190.685 58.9723 190.14 59.1989 189.534 59.6338C189.292 59.6864 189.067 59.7563 188.859 59.8434C188.668 59.9306 188.504 59.9657 188.365 59.9487C188.296 59.9142 188.217 59.8364 188.131 59.7152C188.044 59.5941 187.948 59.4817 187.844 59.378L187.582 58.8326L188.387 58.3886C189.097 57.9362 189.737 57.6226 190.309 57.4479C190.898 57.2731 191.435 57.2631 191.921 57.4179C192.111 57.4174 192.285 57.443 192.441 57.4946C192.597 57.5289 192.675 57.546 192.675 57.546C192.814 57.5283 192.987 57.6059 193.196 57.7787C193.404 57.9342 193.604 58.1331 193.795 58.3752C194.004 58.6174 194.16 58.8597 194.265 59.1021C194.543 59.5174 194.631 59.9592 194.528 60.4274C194.443 60.8783 194.184 61.425 193.752 62.0674C193.666 62.1716 193.476 62.3887 193.182 62.7188C192.888 63.0488 192.551 63.4223 192.171 63.8393C191.808 64.2388 191.471 64.595 191.159 64.9078C190.865 65.2205 190.675 65.4203 190.589 65.5072C190.468 65.5595 190.26 65.742 189.966 66.0547C189.69 66.3501 189.387 66.6802 189.059 67.045C188.748 67.3924 188.48 67.7051 188.255 67.983C188.048 68.2435 187.961 68.3737 187.996 68.3736C187.979 68.443 188.005 68.4776 188.074 68.4774C188.143 68.4599 188.256 68.425 188.412 68.3726C188.672 68.2853 189.009 68.1978 189.425 68.1101C189.858 68.0223 190.3 67.9519 190.751 67.8988C191.201 67.8283 191.591 67.7841 191.92 67.7659C192.267 67.7477 192.466 67.7646 192.519 67.8164C192.553 67.903 192.58 67.9376 192.597 67.9202C192.631 67.8855 192.649 67.8681 192.649 67.8681C192.683 67.7467 192.9 67.7115 193.298 67.7625C193.715 67.8135 194.087 67.8906 194.417 67.9937C194.608 68.0453 194.755 68.0882 194.859 68.1226C194.981 68.157 195.042 68.2089 195.042 68.2782C195.042 68.2782 195.059 68.3215 195.094 68.4081C195.146 68.4773 195.224 68.5724 195.329 68.6935C195.607 68.9181 195.642 69.0654 195.434 69.1352C195.226 69.2051 194.775 69.1802 194.082 69.0606C193.631 69.0617 193.258 69.0886 192.964 69.1413C192.895 69.1762 192.747 69.1939 192.522 69.1944C192.297 69.195 192.08 69.2042 191.872 69.222C191.56 69.1881 191.248 69.2062 190.936 69.2763C190.624 69.3291 190.252 69.4254 189.819 69.5651C189.663 69.6175 189.421 69.6961 189.091 69.8009C188.762 69.9057 188.407 70.0106 188.026 70.1155C187.645 70.2205 187.299 70.2993 186.987 70.3521C186.692 70.4048 186.502 70.4226 186.415 70.4055ZM197.962 69.623C197.633 69.7451 197.356 69.8065 197.131 69.807C196.923 69.7902 196.688 69.6868 196.428 69.4968C196.098 69.1856 195.984 68.8739 196.087 68.5616C196.208 68.232 196.493 67.9106 196.943 67.5975C197.255 67.4061 197.48 67.3015 197.618 67.2838C197.774 67.2661 198.008 67.3262 198.321 67.4641C198.842 67.7921 199.068 68.1556 198.999 68.5544C198.948 68.9532 198.603 69.3094 197.962 69.623ZM203.274 70.3639C203.205 70.3294 203.101 70.269 202.962 70.1826C202.84 70.0789 202.71 69.9666 202.571 69.8456C202.449 69.7072 202.362 69.5861 202.31 69.4822C202.258 69.3957 202.257 69.2397 202.309 69.0142C202.378 68.7887 202.447 68.6759 202.516 68.6757C202.568 68.7103 202.655 68.6494 202.776 68.4931C202.897 68.3368 203.018 68.1718 203.138 67.9982C203.259 67.8072 203.32 67.6944 203.32 67.6597C203.337 67.5904 203.38 67.5383 203.449 67.5034C203.536 67.4512 203.614 67.399 203.683 67.3468C203.769 67.208 203.881 67.069 204.02 66.93C204.175 66.7736 204.296 66.6433 204.383 66.5391C204.521 66.3654 204.772 66.1048 205.135 65.7573C205.498 65.4097 205.852 65.0535 206.198 64.6886C206.561 64.2891 206.881 63.9416 207.158 63.6463C207.434 63.3336 207.581 63.1165 207.598 62.9952C207.598 62.9952 207.624 62.9691 207.676 62.917C207.745 62.8475 207.823 62.7866 207.909 62.7344C207.996 62.6822 208.108 62.5952 208.247 62.4736C208.402 62.3518 208.532 62.2389 208.636 62.1346C208.67 61.9958 208.765 61.8049 208.921 61.5619C209.093 61.3015 209.266 61.0844 209.439 60.9106C209.577 60.7023 209.706 60.4766 209.827 60.2336C209.948 59.9733 210.025 59.7825 210.06 59.6611C210.111 59.4703 210.111 59.3576 210.059 59.3231C210.007 59.2712 209.79 59.1851 209.408 59.0647C208.992 58.927 208.533 58.8762 208.03 58.9121C207.545 58.9306 206.999 59.1573 206.394 59.5921C206.151 59.6447 205.926 59.7146 205.718 59.8018C205.528 59.8889 205.363 59.924 205.224 59.907C205.155 59.8725 205.077 59.7947 204.99 59.6736C204.903 59.5525 204.807 59.44 204.703 59.3363L204.442 58.7909L205.247 58.347C205.956 57.8945 206.597 57.581 207.168 57.4062C207.757 57.2314 208.294 57.2214 208.78 57.3762C208.971 57.3758 209.144 57.4013 209.3 57.4529C209.456 57.4872 209.534 57.5044 209.534 57.5044C209.673 57.4867 209.847 57.5643 210.055 57.7371C210.263 57.8926 210.463 58.0914 210.655 58.3336C210.863 58.5757 211.02 58.818 211.124 59.0604C211.403 59.4758 211.49 59.9175 211.388 60.3858C211.302 60.8367 211.043 61.3833 210.612 62.0257C210.525 62.1299 210.335 62.3471 210.041 62.6771C209.747 63.0072 209.41 63.3807 209.03 63.7976C208.667 64.1972 208.33 64.5534 208.019 64.8661C207.725 65.1789 207.535 65.3787 207.448 65.4655C207.327 65.5178 207.119 65.7004 206.826 66.0131C206.549 66.3084 206.246 66.6385 205.918 67.0033C205.607 67.3508 205.339 67.6634 205.114 67.9413C204.907 68.2018 204.821 68.332 204.855 68.332C204.838 68.4013 204.864 68.4359 204.934 68.4358C205.003 68.4183 205.115 68.3833 205.271 68.3309C205.531 68.2436 205.869 68.1561 206.285 68.0684C206.718 67.9807 207.16 67.9103 207.61 67.8571C208.061 67.7867 208.45 67.7424 208.78 67.7243C209.126 67.7061 209.326 67.7229 209.378 67.7748C209.413 67.8614 209.439 67.896 209.456 67.8786C209.491 67.8438 209.508 67.8265 209.508 67.8265C209.542 67.705 209.759 67.6698 210.158 67.7209C210.574 67.7718 210.947 67.8489 211.276 67.9521C211.467 68.0036 211.615 68.0466 211.719 68.081C211.84 68.1154 211.901 68.1672 211.901 68.2365C211.901 68.2365 211.918 68.2798 211.953 68.3664C212.006 68.4356 212.084 68.5308 212.188 68.6518C212.466 68.8765 212.501 69.0237 212.293 69.0936C212.085 69.1634 211.635 69.1385 210.941 69.0189C210.49 69.02 210.118 69.047 209.823 69.0997C209.754 69.1345 209.607 69.1522 209.381 69.1528C209.156 69.1533 208.939 69.1625 208.731 69.1804C208.419 69.1465 208.107 69.1646 207.795 69.2347C207.484 69.2875 207.111 69.3837 206.678 69.5235C206.522 69.5758 206.28 69.6544 205.951 69.7593C205.622 69.8641 205.267 69.9689 204.886 70.0739C204.504 70.1788 204.158 70.2577 203.846 70.3105C203.552 70.3632 203.361 70.381 203.274 70.3639ZM218.125 70.3792C218.004 70.3795 217.813 70.3279 217.553 70.2246C217.31 70.1039 217.05 69.9658 216.772 69.8105C216.494 69.6379 216.269 69.4738 216.095 69.3182C215.713 68.9551 215.391 68.5139 215.13 67.9946C214.868 67.4752 214.685 66.921 214.579 66.3319C214.474 65.7255 214.464 65.1449 214.549 64.59C214.737 63.4802 215.15 62.3872 215.789 61.3109C216.428 60.2173 217.162 59.3142 217.992 58.6015C218.442 58.2017 218.849 57.8974 219.212 57.6885C219.575 57.4622 220.017 57.2878 220.537 57.1652C220.727 57.1127 220.935 57.0862 221.161 57.0856C221.386 57.0677 221.559 57.0587 221.68 57.0584C222.027 57.0575 222.374 57.126 222.721 57.2638C223.068 57.4016 223.363 57.5742 223.606 57.7816C223.849 57.9717 223.971 58.1534 223.972 58.3267C223.972 58.448 223.963 58.5434 223.946 58.6128C223.929 58.6648 223.851 58.6563 223.712 58.5873L223.452 58.588L223.714 59.3413C223.784 59.4798 223.845 59.6703 223.898 59.9129C223.95 60.1381 223.977 60.346 223.977 60.5367C223.977 60.6927 223.952 60.9441 223.901 61.2909C223.85 61.6203 223.781 61.9758 223.696 62.3574C223.61 62.7389 223.524 63.0945 223.438 63.424C223.352 63.7536 223.275 63.9964 223.206 64.1526C223.154 64.2567 223.12 64.3608 223.103 64.4649C223.103 64.5515 223.103 64.6295 223.103 64.6989C223.034 64.8204 222.922 65.0546 222.767 65.4017C222.629 65.7487 222.526 65.9916 222.457 66.1305C222.388 66.2 222.327 66.2608 222.275 66.3129C222.241 66.365 222.258 66.4256 222.328 66.4948C222.328 66.5295 222.285 66.6422 222.199 66.8331C222.112 67.0067 222.018 67.1716 221.914 67.3278C221.828 67.484 221.758 67.5622 221.706 67.5623C221.706 67.5623 221.68 67.5711 221.629 67.5885C221.594 67.5886 221.577 67.6146 221.577 67.6666C221.577 67.736 221.465 67.9183 221.24 68.2135C221.015 68.4914 220.748 68.7867 220.436 69.0995C220.263 69.2732 220.021 69.4645 219.71 69.6733C219.415 69.8647 219.121 70.0301 218.827 70.1694C218.533 70.3088 218.299 70.3788 218.125 70.3792ZM218.043 68.7414C218.234 68.7409 218.416 68.7145 218.589 68.662C218.762 68.5923 218.909 68.4966 219.03 68.3749C219.342 68.1662 219.705 67.8273 220.12 67.3582C220.535 66.8719 220.837 66.4031 221.026 65.952C221.217 65.6915 221.363 65.4225 221.466 65.1449C221.587 64.8499 221.768 64.3555 222.009 63.6616C222.147 63.4706 222.242 63.2363 222.293 62.9589C222.344 62.6814 222.37 62.4473 222.369 62.2567C222.369 62.066 222.368 61.806 222.367 61.4767C222.384 61.1473 222.427 60.8699 222.495 60.6444C222.494 60.1937 222.485 59.899 222.467 59.7604C222.449 59.6045 222.38 59.4573 222.258 59.3189C222.189 59.2671 222.093 59.2153 221.972 59.1636C221.868 59.1119 221.755 59.0862 221.634 59.0865C221.512 59.0868 221.287 59.1567 220.958 59.2961C220.629 59.4183 220.395 59.5229 220.257 59.6099C220.136 59.6795 219.997 59.6885 219.841 59.6369C219.702 59.5853 219.633 59.5161 219.632 59.4294C219.632 59.1868 219.476 59.1698 219.164 59.3786C218.853 59.57 218.507 59.9002 218.127 60.3691C217.815 60.6819 217.548 61.0032 217.323 61.3331C217.116 61.6456 217.012 61.8366 217.012 61.9059C217.013 61.9752 216.987 62.062 216.935 62.1661C216.883 62.2702 216.832 62.3917 216.78 62.5305C216.694 62.652 216.59 62.8516 216.469 63.1292C216.349 63.4069 216.228 63.6845 216.108 63.9621C216.004 64.2224 215.935 64.4219 215.901 64.5607C215.901 64.63 215.902 64.8207 215.902 65.1327C215.903 65.4273 215.904 65.7047 215.905 65.9647C215.905 66.2593 215.915 66.5106 215.932 66.7186C215.968 66.9265 216.011 67.1084 216.064 67.2643C216.116 67.4028 216.186 67.5586 216.273 67.7317C216.343 67.8529 216.447 68 216.586 68.173C216.742 68.3286 216.847 68.441 216.899 68.5102C217.09 68.6831 217.246 68.7867 217.368 68.821C217.489 68.8381 217.714 68.8115 218.043 68.7414ZM229.83 70.3503C229.709 70.3506 229.518 70.299 229.258 70.1957C229.015 70.0749 228.755 69.9369 228.477 69.7816C228.199 69.609 227.974 69.4448 227.8 69.2893C227.418 68.9262 227.096 68.485 226.835 67.9657C226.573 67.4463 226.39 66.8921 226.284 66.303C226.179 65.6966 226.169 65.116 226.254 64.5611C226.442 63.4513 226.855 62.3583 227.494 61.282C228.133 60.1884 228.867 59.2853 229.697 58.5726C230.147 58.1728 230.554 57.8684 230.917 57.6595C231.281 57.4333 231.722 57.2589 232.242 57.1363C232.432 57.0838 232.64 57.0573 232.866 57.0567C233.091 57.0388 233.264 57.0297 233.386 57.0294C233.732 57.0286 234.079 57.0971 234.426 57.2349C234.773 57.3727 235.068 57.5453 235.311 57.7527C235.554 57.9428 235.676 58.1245 235.677 58.2978C235.677 58.4191 235.669 58.5145 235.651 58.5838C235.634 58.6359 235.556 58.6274 235.417 58.5584L235.157 58.5591L235.419 59.3124C235.489 59.4509 235.55 59.6414 235.603 59.884C235.655 60.1092 235.682 60.3171 235.682 60.5078C235.683 60.6638 235.657 60.9152 235.606 61.262C235.555 61.5914 235.486 61.9469 235.401 62.3285C235.315 62.71 235.229 63.0656 235.143 63.3951C235.057 63.7247 234.98 63.9675 234.911 64.1237C234.859 64.2278 234.825 64.3319 234.808 64.4359C234.808 64.5226 234.808 64.6006 234.808 64.6699C234.739 64.7915 234.627 65.0257 234.472 65.3728C234.334 65.7198 234.231 65.9627 234.162 66.1015C234.093 66.1711 234.032 66.2319 233.98 66.284C233.946 66.3361 233.963 66.3967 234.033 66.4659C234.033 66.5005 233.99 66.6133 233.904 66.8042C233.817 66.9777 233.723 67.1426 233.619 67.2989C233.533 67.4551 233.464 67.5333 233.412 67.5334C233.412 67.5334 233.386 67.5421 233.334 67.5596C233.299 67.5597 233.282 67.5857 233.282 67.6377C233.282 67.7071 233.17 67.8893 232.945 68.1846C232.72 68.4625 232.453 68.7578 232.141 69.0706C231.968 69.2443 231.726 69.4356 231.415 69.6443C231.121 69.8357 230.826 70.0011 230.532 70.1405C230.238 70.2799 230.004 70.3498 229.83 70.3503ZM229.748 68.7125C229.939 68.712 230.121 68.6855 230.294 68.6331C230.467 68.5634 230.614 68.4677 230.736 68.346C231.047 68.1373 231.41 67.7984 231.825 67.3293C232.24 66.843 232.542 66.3742 232.732 65.9231C232.922 65.6626 233.068 65.3936 233.172 65.116C233.292 64.821 233.473 64.3266 233.714 63.6326C233.852 63.4416 233.947 63.2074 233.998 62.9299C234.049 62.6525 234.075 62.4184 234.074 62.2278C234.074 62.0371 234.073 61.7771 234.072 61.4478C234.089 61.1184 234.132 60.8409 234.2 60.6154C234.199 60.1648 234.19 59.8701 234.172 59.7315C234.154 59.5755 234.085 59.4284 233.963 59.29C233.894 59.2382 233.798 59.1864 233.677 59.1347C233.573 59.083 233.46 59.0573 233.339 59.0576C233.217 59.0579 232.992 59.1278 232.663 59.2672C232.334 59.3894 232.1 59.494 231.962 59.581C231.841 59.6506 231.702 59.6596 231.546 59.608C231.407 59.5563 231.338 59.4872 231.337 59.4005C231.337 59.1578 231.181 59.1409 230.869 59.3497C230.558 59.5411 230.212 59.8713 229.832 60.3402C229.52 60.653 229.253 60.9743 229.028 61.3042C228.821 61.6167 228.717 61.8077 228.718 61.877C228.718 61.9463 228.692 62.033 228.64 62.1372C228.588 62.2413 228.537 62.3628 228.485 62.5016C228.399 62.6231 228.295 62.8227 228.175 63.1003C228.054 63.378 227.933 63.6556 227.813 63.9332C227.709 64.1935 227.64 64.393 227.606 64.5317C227.606 64.6011 227.607 64.7917 227.607 65.1037C227.608 65.3984 227.609 65.6757 227.61 65.9357C227.61 66.2304 227.62 66.4817 227.637 66.6897C227.673 66.8976 227.716 67.0795 227.769 67.2353C227.821 67.3739 227.891 67.5297 227.978 67.7028C228.048 67.824 228.152 67.9711 228.291 68.1441C228.447 68.2997 228.552 68.4121 228.604 68.4813C228.795 68.6541 228.951 68.7578 229.073 68.7921C229.194 68.8092 229.419 68.7826 229.748 68.7125ZM241.536 70.3213C241.414 70.3216 241.223 70.2701 240.963 70.1668C240.72 70.046 240.46 69.908 240.182 69.7527C239.904 69.58 239.679 69.4159 239.505 69.2604C239.123 68.8973 238.801 68.4561 238.54 67.9367C238.278 67.4174 238.095 66.8632 237.989 66.2741C237.884 65.6677 237.874 65.087 237.959 64.5322C238.147 63.4224 238.56 62.3293 239.199 61.2531C239.838 60.1595 240.572 59.2564 241.402 58.5436C241.852 58.1439 242.259 57.8395 242.622 57.6306C242.986 57.4044 243.427 57.23 243.947 57.1073C244.137 57.0549 244.345 57.0284 244.571 57.0278C244.796 57.0099 244.969 57.0008 245.091 57.0005C245.437 56.9997 245.784 57.0681 246.131 57.206C246.478 57.3438 246.773 57.5164 247.016 57.7238C247.26 57.9138 247.381 58.0955 247.382 58.2689C247.382 58.3902 247.374 58.4856 247.356 58.5549C247.339 58.607 247.261 58.5985 247.122 58.5295L246.862 58.5302L247.124 59.2835C247.194 59.422 247.255 59.6125 247.308 59.8551C247.36 60.0803 247.387 60.2882 247.387 60.4789C247.388 60.6349 247.362 60.8863 247.311 61.2331C247.26 61.5625 247.191 61.918 247.106 62.2996C247.02 62.6811 246.934 63.0367 246.848 63.3662C246.762 63.6957 246.685 63.9386 246.616 64.0948C246.564 64.1989 246.53 64.303 246.513 64.407C246.513 64.4937 246.513 64.5717 246.513 64.641C246.444 64.7625 246.332 64.9968 246.177 65.3439C246.039 65.6909 245.936 65.9338 245.867 66.0726C245.798 66.1421 245.737 66.203 245.685 66.2551C245.651 66.3072 245.668 66.3678 245.738 66.437C245.738 66.4716 245.695 66.5844 245.609 66.7753C245.523 66.9488 245.428 67.1137 245.324 67.27C245.238 67.4262 245.169 67.5044 245.117 67.5045C245.117 67.5045 245.091 67.5132 245.039 67.5307C245.004 67.5308 244.987 67.5568 244.987 67.6088C244.987 67.6781 244.875 67.8604 244.65 68.1556C244.426 68.4335 244.158 68.7289 243.846 69.0416C243.673 69.2154 243.431 69.4067 243.12 69.6154C242.826 69.8068 242.531 69.9722 242.237 70.1116C241.943 70.251 241.709 70.3209 241.536 70.3213ZM241.453 68.6835C241.644 68.6831 241.826 68.6566 241.999 68.6042C242.172 68.5344 242.32 68.4387 242.441 68.3171C242.752 68.1083 243.115 67.7694 243.53 67.3004C243.945 66.8141 244.247 66.3453 244.437 65.8942C244.627 65.6337 244.773 65.3647 244.877 65.0871C244.997 64.7921 245.178 64.2977 245.419 63.6037C245.557 63.4127 245.652 63.1785 245.703 62.901C245.754 62.6236 245.78 62.3895 245.779 62.1988C245.779 62.0082 245.778 61.7482 245.778 61.4188C245.794 61.0895 245.837 60.812 245.905 60.5865C245.904 60.1359 245.895 59.8412 245.877 59.7026C245.86 59.5466 245.79 59.3995 245.668 59.2611C245.599 59.2093 245.503 59.1575 245.382 59.1058C245.278 59.0541 245.165 59.0283 245.044 59.0286C244.922 59.0289 244.697 59.0988 244.368 59.2383C244.039 59.3605 243.805 59.465 243.667 59.552C243.546 59.6217 243.407 59.6307 243.251 59.5791C243.112 59.5274 243.043 59.4583 243.042 59.3716C243.042 59.1289 242.886 59.112 242.574 59.3207C242.263 59.5122 241.917 59.8424 241.537 60.3113C241.226 60.6241 240.958 60.9454 240.733 61.2753C240.526 61.5878 240.422 61.7787 240.423 61.8481C240.423 61.9174 240.397 62.0041 240.345 62.1083C240.293 62.2124 240.242 62.3339 240.19 62.4726C240.104 62.5942 240 62.7938 239.88 63.0714C239.759 63.349 239.638 63.6267 239.518 63.9043C239.414 64.1646 239.345 64.3641 239.311 64.5028C239.311 64.5722 239.312 64.7628 239.313 65.0748C239.313 65.3695 239.314 65.6468 239.315 65.9068C239.315 66.2015 239.325 66.4528 239.342 66.6608C239.378 66.8687 239.421 67.0506 239.474 67.2064C239.526 67.345 239.596 67.5008 239.683 67.6739C239.753 67.7951 239.857 67.9422 239.996 68.1151C240.152 68.2708 240.257 68.3832 240.309 68.4524C240.5 68.6252 240.656 68.7288 240.778 68.7632C240.899 68.7802 241.124 68.7537 241.453 68.6835Z" fill="black"/>
</svg>
