<svg width="407" height="256" viewBox="0 0 407 256" fill="none" xmlns="http://www.w3.org/2000/svg">
<rect x="2" y="2" width="402.629" height="251.596" rx="2" fill="#3E3E3E" stroke="black" stroke-width="4"/>
<rect x="25.6582" y="25.6387" width="355.312" height="164.427" rx="2" fill="#4B9178" stroke="black" stroke-width="4"/>
<rect x="37.4878" y="37.458" width="331.654" height="53.6198" rx="2" fill="white" stroke="black" stroke-width="4"/>
<rect x="72.9751" y="100.988" width="260.679" height="55.0972" rx="2" fill="#3E3E3E" stroke="black" stroke-width="4"/>
<rect x="179.438" y="100.988" width="47.7528" height="55.0972" rx="2" fill="#3E3E3E" stroke="black" stroke-width="4"/>
<path d="M315.91 128.536C315.91 143.75 303.567 156.085 288.337 156.085C273.107 156.085 260.764 143.75 260.764 128.536C260.764 113.323 273.107 100.988 288.337 100.988C303.567 100.988 315.91 113.323 315.91 128.536Z" fill="#292929" stroke="black" stroke-width="4"/>
<path d="M145.865 128.536C145.865 143.75 133.522 156.085 118.292 156.085C103.062 156.085 90.7188 143.75 90.7188 128.536C90.7188 113.323 103.062 100.988 118.292 100.988C133.522 100.988 145.865 113.323 145.865 128.536Z" fill="#292929" stroke="black" stroke-width="4"/>
<path d="M149.291 70.5497C149.169 70.55 148.979 70.4985 148.718 70.3951C148.475 70.2744 148.215 70.1364 147.937 69.9811C147.66 69.8084 147.434 69.6443 147.26 69.4887C146.878 69.1257 146.556 68.6845 146.295 68.1651C146.033 67.6457 145.85 67.0915 145.745 66.5025C145.639 65.8961 145.629 65.3154 145.714 64.7605C145.902 63.6507 146.316 62.5577 146.954 61.4815C147.593 60.3879 148.327 59.4847 149.158 58.772C149.607 58.3722 150.014 58.0679 150.377 57.859C150.741 57.6328 151.182 57.4583 151.702 57.3357C151.893 57.2832 152.1 57.2567 152.326 57.2562C152.551 57.2383 152.724 57.2292 152.846 57.2289C153.192 57.228 153.539 57.2965 153.886 57.4343C154.233 57.5721 154.528 57.7447 154.772 57.9521C155.015 58.1422 155.136 58.3239 155.137 58.4972C155.137 58.6186 155.129 58.7139 155.112 58.7833C155.094 58.8353 155.016 58.8269 154.878 58.7579L154.618 58.7585L154.879 59.5119C154.949 59.6504 155.01 59.8409 155.063 60.0834C155.115 60.3086 155.142 60.5166 155.142 60.7072C155.143 60.8632 155.117 61.1146 155.066 61.4614C155.015 61.7909 154.947 62.1464 154.861 62.5279C154.775 62.9095 154.689 63.265 154.603 63.5946C154.518 63.9241 154.44 64.167 154.371 64.3231C154.32 64.4273 154.285 64.5314 154.268 64.6354C154.268 64.7221 154.268 64.8001 154.269 64.8694C154.2 64.9909 154.088 65.2252 153.932 65.5722C153.795 65.9192 153.691 66.1622 153.622 66.301C153.553 66.3705 153.493 66.4313 153.441 66.4834C153.406 66.5355 153.424 66.5962 153.493 66.6653C153.493 66.7 153.45 66.8128 153.364 67.0036C153.278 67.1772 153.183 67.3421 153.079 67.4983C152.993 67.6546 152.924 67.7327 152.872 67.7329C152.872 67.7329 152.846 67.7416 152.794 67.759C152.759 67.7591 152.742 67.7852 152.742 67.8372C152.742 67.9065 152.63 68.0888 152.405 68.384C152.181 68.6619 151.913 68.9572 151.602 69.27C151.429 69.4438 151.186 69.635 150.875 69.8438C150.581 70.0352 150.286 70.2006 149.992 70.34C149.698 70.4794 149.464 70.5493 149.291 70.5497ZM149.209 68.9119C149.399 68.9114 149.581 68.885 149.754 68.8326C149.928 68.7628 150.075 68.6671 150.196 68.5455C150.507 68.3367 150.87 67.9978 151.285 67.5288C151.7 67.0424 152.002 66.5737 152.192 66.1225C152.382 65.8621 152.528 65.593 152.632 65.3154C152.752 65.0205 152.933 64.526 153.174 63.8321C153.312 63.6411 153.407 63.4069 153.458 63.1294C153.51 62.8519 153.535 62.6179 153.535 62.4272C153.534 62.2365 153.533 61.9765 153.533 61.6472C153.549 61.3178 153.592 61.0404 153.661 60.8149C153.659 60.3642 153.65 60.0696 153.632 59.931C153.615 59.775 153.545 59.6278 153.423 59.4895C153.354 59.4376 153.258 59.3859 153.137 59.3342C153.033 59.2824 152.92 59.2567 152.799 59.257C152.677 59.2573 152.452 59.3272 152.123 59.4667C151.794 59.5888 151.56 59.6934 151.422 59.7804C151.301 59.85 151.162 59.8591 151.006 59.8074C150.867 59.7558 150.798 59.6866 150.798 59.6C150.797 59.3573 150.641 59.3403 150.329 59.5491C150.018 59.7405 149.672 60.0707 149.292 60.5397C148.981 60.8524 148.713 61.1738 148.488 61.5037C148.281 61.8162 148.178 62.0071 148.178 62.0764C148.178 62.1458 148.152 62.2325 148.1 62.3366C148.049 62.4408 147.997 62.5622 147.945 62.701C147.859 62.8226 147.755 63.0221 147.635 63.2998C147.514 63.5774 147.393 63.855 147.273 64.1327C147.169 64.3929 147.101 64.5924 147.066 64.7312C147.066 64.8005 147.067 64.9912 147.068 65.3032C147.068 65.5979 147.069 65.8752 147.07 66.1352C147.07 66.4298 147.08 66.6812 147.098 66.8891C147.133 67.097 147.177 67.2789 147.229 67.4348C147.281 67.5733 147.351 67.7292 147.438 67.9023C147.508 68.0234 147.612 68.1705 147.751 68.3435C147.908 68.4991 148.012 68.6115 148.064 68.6807C148.255 68.8536 148.411 68.9572 148.533 68.9916C148.654 69.0086 148.879 68.9821 149.209 68.9119ZM160.034 70.6532C159.601 70.6542 159.176 70.612 158.76 70.5263C158.361 70.4233 158.04 70.2941 157.797 70.1387C157.554 69.966 157.441 69.7756 157.457 69.5675C157.474 69.2902 157.534 69.1427 157.638 69.1251C157.742 69.0902 157.985 69.0982 158.366 69.1493C158.956 69.2692 159.589 69.2763 160.264 69.1706C160.94 69.0649 161.572 68.8814 162.161 68.6199C162.75 68.3585 163.208 68.0627 163.537 67.7325C164.004 67.2807 164.211 66.8295 164.157 66.379C164.122 65.9284 163.852 65.5391 163.349 65.211C163.123 65.0555 162.811 64.909 162.412 64.7713C162.012 64.6336 161.614 64.5306 161.215 64.4622C160.833 64.3765 160.521 64.3426 160.278 64.3605C160.123 64.3783 159.993 64.3786 159.888 64.3615C159.802 64.3444 159.646 64.2754 159.42 64.1547C159.316 64.0336 159.22 63.9038 159.133 63.7654C159.046 63.6096 158.985 63.4971 158.95 63.4278C158.933 63.3412 158.976 63.2544 159.08 63.1675C159.201 63.0805 159.452 62.9326 159.832 62.7236C160.213 62.4974 160.802 62.1666 161.598 61.7313C162.325 61.3308 162.896 61.0087 163.312 60.765C163.744 60.504 164.082 60.2951 164.324 60.1385C164.584 59.9646 164.791 59.8081 164.947 59.669C165.258 59.2522 165.413 58.9832 165.413 58.8618C165.413 58.7405 165.187 58.6371 164.736 58.5515C164.303 58.5179 163.887 58.4929 163.488 58.4766C163.089 58.4603 162.89 58.4867 162.89 58.5561C162.89 58.5561 162.881 58.5561 162.864 58.5561C162.864 58.5561 162.838 58.5562 162.786 58.5563C162.699 58.5219 162.509 58.531 162.214 58.5837C161.92 58.6365 161.634 58.6978 161.357 58.7679C161.097 58.8378 160.958 58.8989 160.941 58.9509C160.924 58.9856 160.82 59.0465 160.63 59.1337C160.456 59.2034 160.275 59.2645 160.084 59.317C159.911 59.3694 159.798 59.3957 159.746 59.3958C159.659 59.3614 159.555 59.275 159.434 59.1366C159.329 58.9809 159.242 58.8251 159.172 58.6693C159.103 58.4961 159.085 58.3661 159.119 58.2794C159.154 58.21 159.258 58.1231 159.431 58.0186C159.621 57.8968 159.838 57.775 160.08 57.653C160.322 57.5138 160.539 57.4005 160.729 57.3134C160.972 57.2435 161.309 57.1906 161.743 57.1549C162.193 57.1191 162.644 57.1007 163.095 57.0996C163.545 57.0811 163.874 57.0803 164.083 57.0971C164.88 57.1818 165.496 57.3883 165.93 57.7166C166.364 58.0448 166.634 58.4862 166.739 59.0406C166.792 59.2831 166.81 59.4824 166.793 59.6384C166.776 59.7945 166.698 59.9593 166.56 60.133C166.422 60.2894 166.18 60.524 165.834 60.8368C165.401 61.1152 165.046 61.3501 164.77 61.5414C164.493 61.7328 164.077 61.9765 163.523 62.2725C163.402 62.3595 163.238 62.4726 163.03 62.6117C162.823 62.7509 162.632 62.8814 162.459 63.0032C162.286 63.1076 162.2 63.1771 162.2 63.2118C162.2 63.2118 162.234 63.2377 162.304 63.2895C162.373 63.324 162.46 63.3758 162.564 63.4449C162.668 63.514 162.764 63.5917 162.851 63.6782C163.354 63.8503 163.814 64.1265 164.231 64.5068C164.648 64.8871 164.943 65.1984 165.117 65.4406C165.361 65.9773 165.458 66.4971 165.407 66.9999C165.374 67.5026 165.201 67.9797 164.891 68.4312C164.58 68.8653 164.121 69.2651 163.516 69.6306C163.031 69.9091 162.468 70.1445 161.827 70.3367C161.186 70.5117 160.589 70.6171 160.034 70.6532ZM169.397 69.694C169.068 69.8162 168.791 69.8775 168.565 69.8781C168.357 69.8613 168.123 69.7579 167.862 69.5678C167.532 69.2566 167.419 68.9449 167.522 68.6327C167.643 68.303 167.928 67.9817 168.378 67.6686C168.689 67.4771 168.914 67.3726 169.053 67.3549C169.209 67.3372 169.443 67.3973 169.755 67.5351C170.276 67.8632 170.502 68.2266 170.434 68.6255C170.383 69.0243 170.037 69.3805 169.397 69.694ZM178.923 71.2825C178.871 71.3173 178.802 71.3175 178.715 71.283C178.628 71.2659 178.533 71.2141 178.429 71.1277C178.324 71.0587 178.212 70.9723 178.09 70.8686C178.021 70.7994 177.977 70.7215 177.959 70.6349C177.942 70.5309 177.959 70.3576 178.01 70.1148C178.062 69.872 178.139 69.4818 178.241 68.9442C178.31 68.5974 178.387 68.2505 178.473 67.9036C178.558 67.5567 178.636 67.2705 178.705 67.045C178.773 66.8022 178.808 66.6808 178.808 66.6808C178.894 66.6459 179.015 66.3856 179.17 65.8999C179.342 65.4141 179.531 64.8243 179.737 64.1305C179.806 63.8876 179.926 63.48 180.098 62.9076C180.27 62.3352 180.442 61.7801 180.614 61.2423C180.769 60.7393 180.898 60.2883 181.001 59.8893C181.104 59.4731 181.155 59.265 181.155 59.265C181.155 59.265 181.026 59.3433 180.766 59.4999C180.524 59.6392 180.212 59.8306 179.831 60.0742C179.451 60.3005 179.078 60.5528 178.715 60.831C178.421 61.0051 178.066 61.2486 177.651 61.5616C177.253 61.8746 176.898 62.1268 176.587 62.3183C176.12 62.6834 175.834 62.8921 175.73 62.9444C175.626 62.9793 175.496 62.9536 175.34 62.8673C175.114 62.6772 174.958 62.4783 174.871 62.2705C174.801 62.0627 174.818 61.872 174.921 61.6984C174.956 61.6809 175.06 61.6114 175.233 61.4896C175.423 61.3678 175.631 61.2286 175.856 61.0721C176.081 60.9155 176.288 60.7677 176.479 60.6285C176.686 60.4893 176.833 60.3936 176.92 60.3414C176.972 60.3413 177.067 60.2804 177.206 60.1587C177.344 60.037 177.491 59.924 177.647 59.8196C177.733 59.7154 178.036 59.4807 178.555 59.1154C179.074 58.7501 179.636 58.3414 180.242 57.8892C180.882 57.489 181.419 57.167 181.852 56.9232C182.302 56.6795 182.561 56.5661 182.631 56.5833C182.683 56.5832 182.761 56.6177 182.865 56.6867C182.986 56.7558 183.099 56.8421 183.204 56.9459C183.308 57.0496 183.369 57.1535 183.386 57.2574C183.491 57.3785 183.439 57.656 183.232 58.0898C183.163 58.246 183.052 58.5323 182.897 58.9487C182.742 59.3477 182.569 59.8161 182.38 60.3539C182.208 60.8744 182.036 61.3948 181.864 61.9152C181.709 62.4183 181.58 62.8519 181.477 63.2162C181.34 63.7539 181.211 64.1702 181.09 64.4651C180.987 64.7601 180.884 65.0463 180.78 65.3239C180.694 65.5841 180.591 65.9484 180.471 66.4167C180.35 66.6943 180.221 67.05 180.084 67.4836C179.963 67.8999 179.852 68.3162 179.749 68.7325C179.646 69.1314 179.569 69.4609 179.517 69.721C179.379 70.1027 179.268 70.441 179.182 70.7359C179.096 71.0308 179.01 71.213 178.923 71.2825ZM190.628 71.2536C190.576 71.2884 190.507 71.2886 190.42 71.2541C190.333 71.237 190.238 71.1852 190.134 71.0988C190.03 71.0297 189.917 70.9434 189.795 70.8397C189.726 70.7705 189.682 70.6926 189.664 70.606C189.647 70.502 189.664 70.3286 189.715 70.0858C189.767 69.8431 189.844 69.4529 189.946 68.9153C190.015 68.5684 190.092 68.2216 190.178 67.8747C190.264 67.5278 190.341 67.2416 190.41 67.0161C190.478 66.7733 190.513 66.6519 190.513 66.6519C190.599 66.617 190.72 66.3567 190.875 65.871C191.047 65.3852 191.236 64.7954 191.442 64.1016C191.511 63.8587 191.631 63.4511 191.803 62.8787C191.975 62.3062 192.147 61.7511 192.319 61.2134C192.474 60.7103 192.603 60.2593 192.706 59.8604C192.809 59.4442 192.86 59.236 192.86 59.236C192.86 59.236 192.731 59.3144 192.471 59.471C192.229 59.6103 191.917 59.8017 191.536 60.0453C191.156 60.2716 190.784 60.5238 190.42 60.8021C190.126 60.9761 189.771 61.2197 189.356 61.5327C188.958 61.8457 188.603 62.0979 188.292 62.2893C187.825 62.6545 187.539 62.8632 187.435 62.9155C187.332 62.9504 187.201 62.9247 187.045 62.8384C186.819 62.6483 186.663 62.4494 186.576 62.2416C186.506 62.0337 186.523 61.843 186.626 61.6695C186.661 61.652 186.765 61.5824 186.938 61.4607C187.128 61.3389 187.336 61.1997 187.561 61.0431C187.786 60.8866 187.993 60.7387 188.184 60.5996C188.391 60.4604 188.538 60.3647 188.625 60.3125C188.677 60.3124 188.772 60.2515 188.911 60.1298C189.049 60.0081 189.196 59.8951 189.352 59.7907C189.438 59.6865 189.741 59.4518 190.26 59.0865C190.779 58.7212 191.341 58.3125 191.947 57.8603C192.587 57.46 193.124 57.1381 193.557 56.8943C194.007 56.6505 194.266 56.5372 194.336 56.5544C194.388 56.5543 194.466 56.5887 194.57 56.6578C194.691 56.7268 194.804 56.8132 194.909 56.917C195.013 57.0207 195.074 57.1246 195.091 57.2285C195.196 57.3496 195.144 57.6271 194.937 58.0609C194.869 58.2171 194.757 58.5034 194.602 58.9197C194.447 59.3188 194.274 59.7872 194.085 60.325C193.913 60.8454 193.741 61.3659 193.569 61.8863C193.414 62.3894 193.285 62.823 193.182 63.1873C193.045 63.7249 192.916 64.1413 192.795 64.4362C192.692 64.7311 192.589 65.0174 192.485 65.295C192.399 65.5552 192.296 65.9195 192.176 66.3878C192.055 66.6654 191.926 67.021 191.789 67.4547C191.668 67.871 191.557 68.2873 191.454 68.7035C191.351 69.1025 191.274 69.432 191.222 69.6921C191.084 70.0738 190.973 70.4121 190.887 70.707C190.801 71.0018 190.715 71.184 190.628 71.2536ZM197.961 69.6235C197.632 69.7456 197.355 69.807 197.13 69.8075C196.922 69.7907 196.687 69.6873 196.427 69.4973C196.097 69.1861 195.983 68.8744 196.087 68.5621C196.207 68.2325 196.492 67.9111 196.942 67.598C197.254 67.4065 197.479 67.302 197.617 67.2843C197.773 67.2666 198.007 67.3267 198.32 67.4646C198.841 67.7926 199.067 68.1561 198.999 68.5549C198.947 68.9537 198.602 69.3099 197.961 69.6235ZM203.273 70.3644C203.204 70.3299 203.1 70.2694 202.961 70.1831C202.839 70.0794 202.709 69.9671 202.57 69.8461C202.448 69.7077 202.361 69.5866 202.309 69.4827C202.257 69.3962 202.257 69.2402 202.308 69.0147C202.377 68.7892 202.446 68.6764 202.515 68.6762C202.567 68.7108 202.654 68.6499 202.775 68.4936C202.896 68.3373 203.017 68.1723 203.137 67.9987C203.258 67.8077 203.319 67.6949 203.319 67.6602C203.336 67.5909 203.379 67.5388 203.448 67.5039C203.535 67.4517 203.613 67.3995 203.682 67.3473C203.768 67.2085 203.88 67.0695 204.019 66.9305C204.174 66.7741 204.295 66.6438 204.382 66.5396C204.52 66.3659 204.771 66.1053 205.134 65.7577C205.497 65.4102 205.851 65.054 206.197 64.6891C206.56 64.2895 206.88 63.9421 207.157 63.6467C207.433 63.3341 207.58 63.117 207.597 62.9956C207.597 62.9956 207.623 62.9696 207.675 62.9175C207.744 62.848 207.822 62.7871 207.908 62.7349C207.995 62.6827 208.107 62.5957 208.246 62.474C208.401 62.3523 208.531 62.2393 208.635 62.1351C208.669 61.9963 208.764 61.8054 208.92 61.5624C209.092 61.302 209.265 61.0849 209.438 60.9111C209.576 60.7028 209.706 60.4771 209.826 60.2341C209.947 59.9738 210.024 59.783 210.059 59.6616C210.11 59.4708 210.11 59.3581 210.058 59.3236C210.006 59.2717 209.789 59.1856 209.407 59.0652C208.991 58.9275 208.532 58.8767 208.029 58.9126C207.544 58.9311 206.998 59.1578 206.393 59.5926C206.15 59.6452 205.925 59.7151 205.717 59.8023C205.527 59.8894 205.362 59.9245 205.223 59.9075C205.154 59.873 205.076 59.7952 204.989 59.6741C204.902 59.553 204.806 59.4405 204.702 59.3368L204.441 58.7914L205.246 58.3474C205.955 57.895 206.596 57.5814 207.167 57.4067C207.756 57.2319 208.293 57.2219 208.779 57.3767C208.97 57.3762 209.143 57.4018 209.299 57.4534C209.455 57.4877 209.533 57.5048 209.533 57.5048C209.672 57.4872 209.846 57.5647 210.054 57.7376C210.262 57.893 210.462 58.0919 210.654 58.3341C210.862 58.5762 211.019 58.8185 211.123 59.0609C211.402 59.4762 211.489 59.918 211.387 60.3863C211.301 60.8372 211.042 61.3838 210.611 62.0262C210.524 62.1304 210.334 62.3476 210.04 62.6776C209.746 63.0077 209.409 63.3812 209.029 63.7981C208.666 64.1977 208.329 64.5538 208.018 64.8666C207.724 65.1793 207.534 65.3791 207.447 65.466C207.326 65.5183 207.118 65.7008 206.825 66.0136C206.548 66.3089 206.245 66.639 205.917 67.0038C205.606 67.3512 205.338 67.6639 205.113 67.9418C204.906 68.2023 204.82 68.3325 204.854 68.3324C204.837 68.4018 204.863 68.4364 204.933 68.4362C205.002 68.4187 205.114 68.3838 205.27 68.3314C205.53 68.2441 205.868 68.1566 206.284 68.0689C206.717 67.9812 207.159 67.9107 207.609 67.8576C208.06 67.7872 208.449 67.7429 208.779 67.7247C209.125 67.7066 209.325 67.7234 209.377 67.7753C209.412 67.8618 209.438 67.8965 209.455 67.8791C209.49 67.8443 209.507 67.8269 209.507 67.8269C209.541 67.7055 209.758 67.6703 210.157 67.7213C210.573 67.7723 210.946 67.8494 211.275 67.9526C211.466 68.0041 211.614 68.0471 211.718 68.0815C211.839 68.1159 211.9 68.1677 211.9 68.237C211.9 68.237 211.918 68.2803 211.952 68.3669C212.005 68.4361 212.083 68.5313 212.187 68.6523C212.465 68.877 212.5 69.0242 212.292 69.0941C212.084 69.1639 211.634 69.139 210.94 69.0194C210.489 69.0205 210.117 69.0474 209.822 69.1002C209.753 69.135 209.606 69.1527 209.38 69.1533C209.155 69.1538 208.938 69.163 208.73 69.1809C208.418 69.147 208.106 69.1651 207.795 69.2352C207.483 69.288 207.11 69.3842 206.677 69.5239C206.521 69.5763 206.279 69.6549 205.95 69.7597C205.621 69.8646 205.266 69.9694 204.885 70.0744C204.504 70.1793 204.157 70.2582 203.845 70.3109C203.551 70.3637 203.36 70.3815 203.273 70.3644ZM218.124 70.3797C218.003 70.38 217.812 70.3284 217.552 70.2251C217.309 70.1043 217.049 69.9663 216.771 69.811C216.493 69.6384 216.268 69.4743 216.094 69.3187C215.712 68.9556 215.39 68.5144 215.129 67.9951C214.867 67.4757 214.684 66.9215 214.578 66.3324C214.473 65.726 214.463 65.1454 214.548 64.5905C214.736 63.4807 215.149 62.3877 215.788 61.3114C216.427 60.2178 217.161 59.3147 217.991 58.602C218.441 58.2022 218.848 57.8978 219.211 57.6889C219.575 57.4627 220.016 57.2883 220.536 57.1657C220.726 57.1132 220.934 57.0867 221.16 57.0861C221.385 57.0682 221.558 57.0591 221.68 57.0588C222.026 57.058 222.373 57.1265 222.72 57.2643C223.067 57.4021 223.362 57.5747 223.605 57.7821C223.848 57.9722 223.97 58.1539 223.971 58.3272C223.971 58.4485 223.963 58.5439 223.945 58.6133C223.928 58.6653 223.85 58.6568 223.711 58.5878L223.451 58.5885L223.713 59.3418C223.783 59.4803 223.844 59.6708 223.897 59.9134C223.949 60.1386 223.976 60.3465 223.976 60.5372C223.977 60.6932 223.951 60.9446 223.9 61.2914C223.849 61.6208 223.78 61.9763 223.695 62.3579C223.609 62.7394 223.523 63.095 223.437 63.4245C223.351 63.7541 223.274 63.9969 223.205 64.1531C223.153 64.2572 223.119 64.3613 223.102 64.4654C223.102 64.552 223.102 64.63 223.102 64.6994C223.033 64.8209 222.921 65.0551 222.766 65.4022C222.628 65.7492 222.525 65.9921 222.456 66.131C222.387 66.2005 222.326 66.2613 222.274 66.3134C222.24 66.3655 222.257 66.4261 222.327 66.4953C222.327 66.5299 222.284 66.6427 222.198 66.8336C222.111 67.0071 222.017 67.172 221.913 67.3283C221.827 67.4845 221.757 67.5627 221.705 67.5628C221.705 67.5628 221.68 67.5715 221.628 67.589C221.593 67.5891 221.576 67.6151 221.576 67.6671C221.576 67.7365 221.464 67.9187 221.239 68.214C221.014 68.4919 220.747 68.7872 220.435 69.1C220.262 69.2737 220.02 69.465 219.709 69.6738C219.415 69.8651 219.12 70.0305 218.826 70.1699C218.532 70.3093 218.298 70.3792 218.124 70.3797ZM218.042 68.7419C218.233 68.7414 218.415 68.7149 218.588 68.6625C218.761 68.5928 218.908 68.4971 219.03 68.3754C219.341 68.1667 219.704 67.8278 220.119 67.3587C220.534 66.8724 220.836 66.4036 221.026 65.9525C221.216 65.692 221.362 65.423 221.466 65.1454C221.586 64.8504 221.767 64.356 222.008 63.6621C222.146 63.471 222.241 63.2368 222.292 62.9593C222.343 62.6819 222.369 62.4478 222.368 62.2572C222.368 62.0665 222.367 61.8065 222.366 61.4772C222.383 61.1478 222.426 60.8703 222.494 60.6448C222.493 60.1942 222.484 59.8995 222.466 59.7609C222.448 59.605 222.379 59.4578 222.257 59.3194C222.188 59.2676 222.092 59.2158 221.971 59.1641C221.867 59.1124 221.754 59.0867 221.633 59.087C221.511 59.0873 221.286 59.1572 220.957 59.2966C220.628 59.4188 220.394 59.5234 220.256 59.6104C220.135 59.68 219.996 59.689 219.84 59.6374C219.701 59.5857 219.632 59.5166 219.631 59.4299C219.631 59.1872 219.475 59.1703 219.163 59.3791C218.852 59.5705 218.506 59.9007 218.126 60.3696C217.814 60.6824 217.547 61.0037 217.322 61.3336C217.115 61.6461 217.011 61.8371 217.011 61.9064C217.012 61.9757 216.986 62.0625 216.934 62.1666C216.882 62.2707 216.831 62.3922 216.779 62.531C216.693 62.6525 216.589 62.8521 216.469 63.1297C216.348 63.4074 216.227 63.685 216.107 63.9626C216.003 64.2229 215.934 64.4224 215.9 64.5611C215.9 64.6305 215.901 64.8211 215.901 65.1331C215.902 65.4278 215.903 65.7051 215.904 65.9651C215.904 66.2598 215.914 66.5111 215.931 66.7191C215.967 66.927 216.01 67.1089 216.063 67.2648C216.115 67.4033 216.185 67.5591 216.272 67.7322C216.342 67.8534 216.446 68.0005 216.585 68.1735C216.741 68.3291 216.846 68.4415 216.898 68.5107C217.089 68.6836 217.245 68.7872 217.367 68.8215C217.488 68.8386 217.713 68.812 218.042 68.7419ZM229.83 70.3508C229.708 70.3511 229.517 70.2995 229.257 70.1962C229.014 70.0754 228.754 69.9374 228.476 69.7821C228.198 69.6094 227.973 69.4453 227.799 69.2898C227.417 68.9267 227.095 68.4855 226.834 67.9661C226.572 67.4468 226.389 66.8926 226.283 66.3035C226.178 65.6971 226.168 65.1164 226.253 64.5616C226.441 63.4518 226.854 62.3587 227.493 61.2825C228.132 60.1889 228.866 59.2858 229.696 58.573C230.146 58.1733 230.553 57.8689 230.916 57.66C231.28 57.4338 231.721 57.2594 232.241 57.1368C232.431 57.0843 232.639 57.0578 232.865 57.0572C233.09 57.0393 233.263 57.0302 233.385 57.0299C233.731 57.0291 234.078 57.0975 234.425 57.2354C234.772 57.3732 235.067 57.5458 235.31 57.7532C235.553 57.9432 235.675 58.1249 235.676 58.2983C235.676 58.4196 235.668 58.515 235.65 58.5843C235.633 58.6364 235.555 58.6279 235.416 58.5589L235.156 58.5596L235.418 59.3129C235.488 59.4514 235.549 59.6419 235.602 59.8845C235.654 60.1097 235.681 60.3176 235.681 60.5083C235.682 60.6643 235.656 60.9157 235.605 61.2625C235.554 61.5919 235.485 61.9474 235.4 62.329C235.314 62.7105 235.228 63.0661 235.142 63.3956C235.056 63.7252 234.979 63.968 234.91 64.1242C234.858 64.2283 234.824 64.3324 234.807 64.4364C234.807 64.5231 234.807 64.6011 234.807 64.6704C234.738 64.7919 234.626 65.0262 234.471 65.3733C234.333 65.7203 234.23 65.9632 234.161 66.102C234.092 66.1715 234.031 66.2324 233.979 66.2845C233.945 66.3366 233.962 66.3972 234.032 66.4664C234.032 66.501 233.989 66.6138 233.903 66.8047C233.817 66.9782 233.722 67.1431 233.618 67.2994C233.532 67.4556 233.463 67.5338 233.411 67.5339C233.411 67.5339 233.385 67.5426 233.333 67.5601C233.298 67.5602 233.281 67.5862 233.281 67.6382C233.281 67.7075 233.169 67.8898 232.944 68.1851C232.72 68.4629 232.452 68.7583 232.14 69.071C231.967 69.2448 231.725 69.4361 231.414 69.6448C231.12 69.8362 230.825 70.0016 230.531 70.141C230.237 70.2804 230.003 70.3503 229.83 70.3508ZM229.747 68.7129C229.938 68.7125 230.12 68.686 230.293 68.6336C230.466 68.5638 230.614 68.4681 230.735 68.3465C231.046 68.1377 231.409 67.7988 231.824 67.3298C232.239 66.8435 232.541 66.3747 232.731 65.9236C232.921 65.6631 233.067 65.3941 233.171 65.1165C233.291 64.8215 233.472 64.3271 233.713 63.6331C233.851 63.4421 233.946 63.2079 233.997 62.9304C234.048 62.653 234.074 62.4189 234.073 62.2282C234.073 62.0376 234.072 61.7776 234.071 61.4482C234.088 61.1189 234.131 60.8414 234.199 60.6159C234.198 60.1653 234.189 59.8706 234.171 59.732C234.154 59.576 234.084 59.4289 233.962 59.2905C233.893 59.2387 233.797 59.1869 233.676 59.1352C233.572 59.0835 233.459 59.0578 233.338 59.058C233.216 59.0583 232.991 59.1282 232.662 59.2677C232.333 59.3899 232.099 59.4944 231.961 59.5815C231.84 59.6511 231.701 59.6601 231.545 59.6085C231.406 59.5568 231.337 59.4877 231.336 59.401C231.336 59.1583 231.18 59.1414 230.868 59.3502C230.557 59.5416 230.211 59.8718 229.831 60.3407C229.52 60.6535 229.252 60.9748 229.027 61.3047C228.82 61.6172 228.716 61.8081 228.717 61.8775C228.717 61.9468 228.691 62.0335 228.639 62.1377C228.587 62.2418 228.536 62.3633 228.484 62.5021C228.398 62.6236 228.294 62.8232 228.174 63.1008C228.053 63.3785 227.932 63.6561 227.812 63.9337C227.708 64.194 227.639 64.3935 227.605 64.5322C227.605 64.6016 227.606 64.7922 227.607 65.1042C227.607 65.3989 227.608 65.6762 227.609 65.9362C227.609 66.2309 227.619 66.4822 227.636 66.6902C227.672 66.8981 227.715 67.08 227.768 67.2358C227.82 67.3744 227.89 67.5302 227.977 67.7033C228.047 67.8245 228.151 67.9716 228.29 68.1445C228.446 68.3002 228.551 68.4126 228.603 68.4818C228.794 68.6546 228.95 68.7583 229.072 68.7926C229.193 68.8097 229.418 68.7831 229.747 68.7129ZM238.834 71.7065C238.713 71.6895 238.591 71.6464 238.47 71.5774C238.348 71.5084 238.227 71.422 238.105 71.3183C238.001 71.2146 237.897 71.1195 237.792 71.0331C237.67 70.7387 237.583 70.5136 237.531 70.3577C237.478 70.2019 237.478 69.9419 237.529 69.5777C237.528 69.3697 237.545 69.127 237.579 68.8496C237.63 68.5721 237.716 68.3466 237.837 68.173C237.958 67.826 238.147 67.4182 238.406 66.9496C238.682 66.4809 238.976 66.0121 239.287 65.5434C239.615 65.0746 239.917 64.6491 240.194 64.2671C240.487 63.8677 240.703 63.5812 240.841 63.4075C241.031 63.1644 241.118 62.9648 241.1 62.8089C241.1 62.6356 240.925 62.3153 240.578 61.8482C240.508 61.6577 240.429 61.5192 240.343 61.4328C240.256 61.329 240.247 61.277 240.316 61.2768C240.316 61.2768 240.29 61.2509 240.238 61.199C240.203 61.1298 240.16 61.0345 240.107 60.9133C239.847 60.6713 239.716 60.299 239.714 59.7963C239.731 59.2936 239.859 58.7993 240.101 58.3133C240.377 57.6887 240.679 57.2199 241.007 56.9071C241.353 56.5769 241.786 56.3765 242.306 56.3059C242.497 56.3227 242.817 56.374 243.268 56.4595C243.719 56.5451 244.187 56.6392 244.673 56.742C245.159 56.8448 245.549 56.9652 245.844 57.1031C246.052 57.1893 246.286 57.3274 246.547 57.5174C246.825 57.7074 247.068 57.8975 247.276 58.0876C247.485 58.2604 247.598 58.3988 247.615 58.5028C247.615 58.5548 247.642 58.6154 247.694 58.6846C247.763 58.7364 247.807 58.8056 247.824 58.8923C247.929 59.0827 247.981 59.3079 247.982 59.5679C248 59.8278 247.983 60.0879 247.932 60.348C247.88 60.5908 247.803 60.7903 247.699 60.9466C247.267 61.433 246.965 61.7111 246.791 61.7808C246.705 61.8504 246.601 61.9373 246.48 62.0416C246.376 62.1458 246.255 62.2155 246.117 62.2505C246.03 62.372 245.944 62.4763 245.857 62.5631C245.788 62.65 245.719 62.6935 245.65 62.6936C245.58 62.6418 245.511 62.616 245.441 62.6162C245.372 62.599 245.338 62.6251 245.338 62.6944C245.338 62.7291 245.217 62.8074 244.974 62.9293C244.749 63.0512 244.515 63.1558 244.273 63.243C244.031 63.3303 243.875 63.3567 243.805 63.3222C243.805 63.3222 243.779 63.3223 243.727 63.3224C243.675 63.3225 243.597 63.3574 243.493 63.427C243.268 63.3929 243.399 63.6699 243.886 64.258C244.286 65.0024 244.583 65.721 244.775 66.4138C244.985 67.0893 244.96 67.6094 244.701 67.974C244.373 68.7202 244.019 69.3364 243.639 69.8226C243.259 70.2916 242.956 70.5177 242.731 70.5009C242.731 70.5009 242.688 70.527 242.601 70.5792C242.532 70.6314 242.454 70.6836 242.368 70.7358C242.333 70.8572 242.255 70.9354 242.134 70.9704C242.03 71.0226 241.935 71.0402 241.848 71.0231C241.692 70.9541 241.424 71.0414 241.043 71.2851C240.818 71.4416 240.55 71.5549 240.238 71.625C239.943 71.7124 239.666 71.7565 239.406 71.7571C239.146 71.7751 238.955 71.7582 238.834 71.7065ZM239.247 70.3795C239.42 70.3964 239.663 70.3438 239.974 70.2217C240.286 70.0996 240.615 69.9428 240.961 69.7513C241.325 69.5424 241.636 69.3509 241.896 69.1769C242.553 68.638 242.994 68.1169 243.218 67.6137C243.459 67.1104 243.475 66.5904 243.266 66.0535C243.161 65.8458 243.048 65.6207 242.926 65.3784C242.804 65.136 242.7 64.9456 242.613 64.8072C242.509 64.6514 242.413 64.539 242.326 64.4699C242.257 64.4007 242.178 64.3402 242.092 64.2884C242.092 64.2884 242.022 64.3406 241.884 64.445C241.763 64.5319 241.659 64.6708 241.573 64.8617C241.383 65.1049 241.227 65.3132 241.107 65.4869C241.003 65.6605 240.917 65.808 240.848 65.9295C240.727 66.0512 240.614 66.1641 240.511 66.2684C240.407 66.3726 240.329 66.4508 240.277 66.5029C240.277 66.5549 240.226 66.7111 240.122 66.9713C240.019 67.2142 239.898 67.4572 239.76 67.7002C239.38 68.3598 239.139 68.9671 239.037 69.522C238.951 70.0595 239.021 70.3454 239.247 70.3795ZM243.255 61.7896C243.619 61.4593 243.93 61.2766 244.19 61.2412C244.467 61.1886 244.658 61.2574 244.763 61.4478C244.797 61.5171 244.997 61.4386 245.36 61.2124C245.741 60.9861 246.069 60.7253 246.346 60.4299C246.45 60.239 246.51 60.0915 246.527 59.9875C246.544 59.8834 246.535 59.6928 246.5 59.4155C246.516 59.2422 246.499 59.1035 246.447 58.9997C246.394 58.8785 246.281 58.7661 246.108 58.6625C245.951 58.5589 245.691 58.4382 245.327 58.3004C244.251 57.9218 243.367 57.8026 242.674 57.943C241.981 58.0834 241.514 58.5612 241.273 59.3764C241.17 59.706 241.119 60.0008 241.12 60.2608C241.12 60.5208 241.19 60.798 241.33 61.0923C241.486 61.1613 241.59 61.2563 241.642 61.3775C241.695 61.4814 241.721 61.5333 241.721 61.5333C241.721 61.6893 241.791 61.7672 241.929 61.7668C241.964 61.8534 242.086 61.9484 242.294 62.0519C242.502 62.1554 242.823 62.068 243.255 61.7896Z" fill="black"/>
</svg>
