<svg width="104" height="104" viewBox="0 0 104 104" fill="none" xmlns="http://www.w3.org/2000/svg">
<circle cx="52.3653" cy="51.6573" r="49.0684" fill="#DADADA" stroke="black" stroke-width="5"/>
<mask id="path-2-inside-1_739_149" fill="white">
<rect x="23.1436" y="57.5752" width="58.4442" height="15.2169" rx="3"/>
</mask>
<rect x="23.1436" y="57.5752" width="58.4442" height="15.2169" rx="3" stroke="black" stroke-width="10" mask="url(#path-2-inside-1_739_149)"/>
<path d="M51.8623 20.9196L79.6782 49.1513C79.7804 49.255 79.8109 49.3411 79.8221 49.408C79.8356 49.4883 79.8273 49.5901 79.7833 49.6953C79.7393 49.8004 79.6726 49.8778 79.6059 49.9246C79.5504 49.9635 79.4676 50.0022 79.3221 50.0022L23.6901 50.0022C23.5446 50.0022 23.4618 49.9635 23.4063 49.9246C23.3396 49.8778 23.2729 49.8004 23.2289 49.6953C23.1849 49.5901 23.1766 49.4883 23.1901 49.408C23.2013 49.3411 23.2318 49.255 23.334 49.1513L51.1499 20.9196C51.3458 20.7209 51.6664 20.7209 51.8623 20.9196Z" stroke="black" stroke-width="5"/>
</svg>
