<svg width="104" height="104" viewBox="0 0 104 104" fill="none" xmlns="http://www.w3.org/2000/svg">
<circle cx="51.5684" cy="51.5684" r="49.0684" fill="#C1C1C1" stroke="black" stroke-width="5"/>
<mask id="path-2-inside-1_956_158" fill="white">
<rect x="22.3467" y="57.4863" width="58.4442" height="15.2169" rx="3"/>
</mask>
<rect x="22.3467" y="57.4863" width="58.4442" height="15.2169" rx="3" stroke="black" stroke-width="10" mask="url(#path-2-inside-1_956_158)"/>
<path d="M51.0654 20.8308L78.8814 49.0624C78.9835 49.1661 79.0141 49.2523 79.0253 49.3191C79.0387 49.3994 79.0304 49.5013 78.9864 49.6064C78.9424 49.7115 78.8757 49.7889 78.809 49.8357C78.7535 49.8746 78.6707 49.9133 78.5252 49.9133L22.8933 49.9133C22.7477 49.9133 22.6649 49.8746 22.6094 49.8357C22.5427 49.7889 22.476 49.7115 22.432 49.6064C22.388 49.5013 22.3797 49.3994 22.3932 49.3191C22.4044 49.2523 22.4349 49.1661 22.5371 49.0624L50.3531 20.8308C50.5489 20.632 50.8695 20.632 51.0654 20.8308Z" stroke="black" stroke-width="5"/>
</svg>
