<svg width="407" height="256" viewBox="0 0 407 256" fill="none" xmlns="http://www.w3.org/2000/svg">
<rect x="2" y="2" width="402.629" height="251.596" rx="2" fill="#3E3E3E" stroke="black" stroke-width="4"/>
<rect x="25.6582" y="25.6387" width="355.312" height="164.427" rx="2" fill="#E96031" stroke="black" stroke-width="4"/>
<rect x="37.4878" y="37.458" width="331.654" height="53.6198" rx="2" fill="white" stroke="black" stroke-width="4"/>
<rect x="72.9751" y="100.988" width="260.679" height="55.0972" rx="2" fill="#3E3E3E" stroke="black" stroke-width="4"/>
<rect x="179.438" y="100.988" width="47.7528" height="55.0972" rx="2" fill="#3E3E3E" stroke="black" stroke-width="4"/>
<path d="M315.91 128.536C315.91 143.75 303.567 156.085 288.337 156.085C273.107 156.085 260.764 143.75 260.764 128.536C260.764 113.323 273.107 100.988 288.337 100.988C303.567 100.988 315.91 113.323 315.91 128.536Z" fill="#292929" stroke="black" stroke-width="4"/>
<path d="M145.865 128.536C145.865 143.75 133.522 156.085 118.292 156.085C103.062 156.085 90.7188 143.75 90.7188 128.536C90.7188 113.323 103.062 100.988 118.292 100.988C133.522 100.988 145.865 113.323 145.865 128.536Z" fill="#292929" stroke="black" stroke-width="4"/>
<path d="M146.145 70.5055C146.075 70.471 145.971 70.4106 145.832 70.3243C145.711 70.2206 145.58 70.1082 145.441 69.9872C145.32 69.8489 145.233 69.7277 145.18 69.6239C145.128 69.5373 145.128 69.3813 145.179 69.1559C145.248 68.9304 145.317 68.8175 145.386 68.8174C145.438 68.8519 145.525 68.791 145.646 68.6347C145.767 68.4784 145.888 68.3134 146.009 68.1398C146.13 67.9488 146.19 67.836 146.19 67.8014C146.207 67.732 146.25 67.6799 146.319 67.645C146.406 67.5928 146.484 67.5406 146.553 67.4885C146.639 67.3496 146.752 67.2106 146.89 67.0716C147.046 66.9152 147.167 66.7849 147.253 66.6807C147.391 66.5071 147.642 66.2464 148.005 65.8989C148.368 65.5513 148.723 65.1951 149.069 64.8302C149.432 64.4307 149.751 64.0832 150.028 63.7879C150.305 63.4752 150.451 63.2582 150.468 63.1368C150.468 63.1368 150.494 63.1107 150.546 63.0586C150.615 62.9891 150.693 62.9282 150.78 62.876C150.866 62.8238 150.979 62.7369 151.117 62.6152C151.273 62.4935 151.402 62.3805 151.506 62.2762C151.541 62.1375 151.635 61.9466 151.791 61.7035C151.963 61.4431 152.136 61.226 152.309 61.0522C152.447 60.8439 152.577 60.6182 152.698 60.3753C152.818 60.115 152.896 59.9241 152.93 59.8027C152.982 59.6119 152.981 59.4992 152.929 59.4647C152.877 59.4128 152.66 59.3267 152.279 59.2063C151.862 59.0687 151.403 59.0178 150.9 59.0537C150.415 59.0722 149.87 59.2989 149.264 59.7337C149.021 59.7863 148.796 59.8562 148.588 59.9434C148.398 60.0306 148.233 60.0656 148.095 60.0486C148.025 60.0141 147.947 59.9363 147.86 59.8152C147.773 59.6941 147.678 59.5817 147.573 59.4779L147.312 58.9326L148.117 58.4886C148.826 58.0362 149.467 57.7226 150.039 57.5478C150.627 57.373 151.165 57.363 151.65 57.5178C151.841 57.5174 152.015 57.5429 152.171 57.5946C152.327 57.6288 152.405 57.646 152.405 57.646C152.543 57.6283 152.717 57.7059 152.925 57.8787C153.134 58.0342 153.334 58.233 153.525 58.4752C153.733 58.7174 153.89 58.9596 153.995 59.2021C154.273 59.6174 154.361 60.0592 154.258 60.5274C154.172 60.9783 153.914 61.5249 153.482 62.1673C153.396 62.2715 153.205 62.4887 152.912 62.8187C152.618 63.1488 152.281 63.5223 151.9 63.9392C151.537 64.3388 151.2 64.695 150.889 65.0077C150.595 65.3205 150.405 65.5203 150.318 65.6072C150.197 65.6595 149.99 65.842 149.696 66.1547C149.419 66.45 149.117 66.7801 148.788 67.1449C148.477 67.4924 148.209 67.805 147.985 68.0829C147.777 68.3434 147.691 68.4737 147.726 68.4736C147.708 68.5429 147.734 68.5775 147.804 68.5774C147.873 68.5599 147.986 68.5249 148.142 68.4725C148.401 68.3852 148.739 68.2977 149.155 68.21C149.588 68.1223 150.03 68.0519 150.48 67.9988C150.931 67.9283 151.321 67.884 151.65 67.8659C151.997 67.8477 152.196 67.8645 152.248 67.9164C152.283 68.003 152.309 68.0376 152.326 68.0202C152.361 67.9855 152.378 67.9681 152.378 67.9681C152.413 67.8467 152.629 67.8115 153.028 67.8625C153.444 67.9134 153.817 67.9905 154.147 68.0937C154.337 68.1452 154.485 68.1882 154.589 68.2226C154.71 68.257 154.771 68.3088 154.771 68.3782C154.771 68.3782 154.789 68.4215 154.824 68.508C154.876 68.5772 154.954 68.6724 155.058 68.7935C155.336 69.0181 155.371 69.1654 155.163 69.2352C154.956 69.305 154.505 69.2802 153.811 69.1605C153.361 69.1617 152.988 69.1886 152.693 69.2413C152.624 69.2761 152.477 69.2938 152.252 69.2944C152.026 69.2949 151.81 69.3042 151.602 69.322C151.29 69.2881 150.978 69.3062 150.666 69.3763C150.354 69.4291 149.981 69.5253 149.548 69.6651C149.393 69.7175 149.15 69.7961 148.821 69.9009C148.492 70.0057 148.137 70.1106 147.756 70.2155C147.375 70.3204 147.028 70.3993 146.716 70.4521C146.422 70.5048 146.231 70.5226 146.145 70.5055ZM162.064 71.3242C162.012 71.359 161.942 71.3591 161.856 71.3247C161.769 71.3076 161.674 71.2558 161.569 71.1694C161.465 71.1003 161.352 71.0139 161.231 70.9102C161.161 70.8411 161.118 70.7632 161.1 70.6765C161.083 70.5726 161.099 70.3992 161.151 70.1564C161.202 69.9136 161.279 69.5234 161.382 68.9858C161.45 68.639 161.528 68.2921 161.613 67.9453C161.699 67.5984 161.776 67.3122 161.845 67.0867C161.914 66.8438 161.948 66.7224 161.948 66.7224C162.035 66.6875 162.156 66.4273 162.31 65.9415C162.483 65.4558 162.672 64.866 162.878 64.1721C162.947 63.9293 163.067 63.5217 163.239 62.9492C163.411 62.3768 163.583 61.8217 163.755 61.284C163.91 60.7809 164.039 60.3299 164.142 59.931C164.245 59.5147 164.296 59.3066 164.296 59.3066C164.296 59.3066 164.166 59.3849 163.907 59.5416C163.664 59.6808 163.353 59.8723 162.972 60.1159C162.591 60.3422 162.219 60.5944 161.856 60.8726C161.562 61.0467 161.207 61.2902 160.792 61.6033C160.394 61.9163 160.039 62.1685 159.728 62.3599C159.26 62.7251 158.975 62.9338 158.871 62.986C158.767 63.0209 158.637 62.9953 158.481 62.909C158.255 62.7189 158.099 62.5199 158.011 62.3121C157.942 62.1043 157.958 61.9136 158.062 61.74C158.097 61.7226 158.2 61.653 158.373 61.5312C158.564 61.4094 158.771 61.2703 158.996 61.1137C159.221 60.9571 159.429 60.8093 159.619 60.6702C159.827 60.531 159.974 60.4353 160.061 60.3831C160.113 60.3829 160.208 60.322 160.346 60.2004C160.485 60.0787 160.632 59.9657 160.787 59.8613C160.874 59.7571 161.177 59.5223 161.696 59.157C162.215 58.7917 162.777 58.383 163.383 57.9309C164.023 57.5306 164.559 57.2086 164.992 56.9649C165.442 56.7211 165.702 56.6078 165.771 56.625C165.823 56.6248 165.901 56.6593 166.006 56.7284C166.127 56.7974 166.24 56.8838 166.344 56.9875C166.449 57.0913 166.509 57.1951 166.527 57.2991C166.631 57.4202 166.58 57.6976 166.373 58.1315C166.304 58.2876 166.192 58.5739 166.037 58.9903C165.882 59.3894 165.71 59.8578 165.521 60.3956C165.349 60.916 165.177 61.4364 165.005 61.9569C164.85 62.4599 164.721 62.8936 164.618 63.2578C164.48 63.7955 164.351 64.2118 164.231 64.5068C164.128 64.8017 164.024 65.088 163.921 65.3656C163.835 65.6258 163.732 65.99 163.612 66.4583C163.491 66.736 163.362 67.0916 163.224 67.5253C163.104 67.9416 162.992 68.3579 162.889 68.7741C162.786 69.173 162.709 69.5026 162.658 69.7627C162.52 70.1444 162.408 70.4826 162.322 70.7775C162.236 71.0724 162.15 71.2546 162.064 71.3242ZM169.397 69.694C169.068 69.8162 168.791 69.8775 168.565 69.8781C168.357 69.8613 168.123 69.7579 167.862 69.5678C167.532 69.2566 167.419 68.9449 167.522 68.6327C167.643 68.303 167.928 67.9817 168.378 67.6686C168.689 67.4771 168.914 67.3726 169.053 67.3549C169.209 67.3372 169.443 67.3973 169.755 67.5351C170.276 67.8632 170.502 68.2266 170.434 68.6255C170.383 69.0243 170.037 69.3805 169.397 69.694ZM177.855 70.4791C177.734 70.4794 177.543 70.4279 177.283 70.3246C177.04 70.2038 176.779 70.0658 176.502 69.9105C176.224 69.7378 175.998 69.5737 175.824 69.4182C175.442 69.0551 175.12 68.6139 174.859 68.0945C174.598 67.5752 174.414 67.021 174.309 66.4319C174.204 65.8255 174.193 65.2448 174.279 64.69C174.467 63.5802 174.88 62.4871 175.519 61.4109C176.157 60.3173 176.892 59.4142 177.722 58.7014C178.172 58.3017 178.578 57.9973 178.942 57.7884C179.305 57.5622 179.747 57.3878 180.266 57.2651C180.457 57.2127 180.665 57.1862 180.89 57.1856C181.115 57.1677 181.289 57.1586 181.41 57.1583C181.757 57.1575 182.104 57.2259 182.451 57.3638C182.798 57.5016 183.093 57.6742 183.336 57.8816C183.579 58.0716 183.701 58.2533 183.701 58.4267C183.702 58.548 183.693 58.6434 183.676 58.7127C183.659 58.7648 183.581 58.7563 183.442 58.6873L183.182 58.688L183.444 59.4413C183.513 59.5798 183.575 59.7703 183.627 60.0129C183.68 60.2381 183.706 60.446 183.707 60.6367C183.707 60.7927 183.682 61.0441 183.631 61.3909C183.579 61.7203 183.511 62.0758 183.425 62.4574C183.339 62.8389 183.254 63.1945 183.168 63.524C183.082 63.8535 183.005 64.0964 182.936 64.2526C182.884 64.3567 182.85 64.4608 182.832 64.5648C182.833 64.6515 182.833 64.7295 182.833 64.7988C182.764 64.9203 182.652 65.1546 182.497 65.5017C182.359 65.8487 182.256 66.0916 182.187 66.2304C182.117 66.2999 182.057 66.3608 182.005 66.4129C181.97 66.465 181.988 66.5256 182.057 66.5948C182.058 66.6294 182.014 66.7422 181.928 66.9331C181.842 67.1066 181.747 67.2715 181.644 67.4278C181.557 67.584 181.488 67.6622 181.436 67.6623C181.436 67.6623 181.41 67.671 181.358 67.6885C181.323 67.6886 181.306 67.7146 181.306 67.7666C181.307 67.8359 181.194 68.0182 180.97 68.3134C180.745 68.5913 180.477 68.8867 180.166 69.1994C179.993 69.3732 179.751 69.5645 179.439 69.7732C179.145 69.9646 178.851 70.13 178.557 70.2694C178.262 70.4088 178.028 70.4787 177.855 70.4791ZM177.773 68.8413C177.964 68.8409 178.146 68.8144 178.319 68.762C178.492 68.6922 178.639 68.5965 178.76 68.4749C179.072 68.2661 179.435 67.9272 179.85 67.4582C180.264 66.9719 180.567 66.5031 180.756 66.052C180.946 65.7915 181.093 65.5225 181.196 65.2449C181.317 64.9499 181.497 64.4555 181.738 63.7615C181.877 63.5705 181.971 63.3363 182.023 63.0588C182.074 62.7814 182.099 62.5473 182.099 62.3566C182.098 62.166 182.098 61.906 182.097 61.5766C182.114 61.2473 182.156 60.9698 182.225 60.7443C182.224 60.2937 182.214 59.999 182.197 59.8604C182.179 59.7044 182.109 59.5573 181.988 59.4189C181.918 59.3671 181.823 59.3153 181.701 59.2636C181.597 59.2119 181.484 59.1861 181.363 59.1864C181.242 59.1867 181.017 59.2566 180.688 59.3961C180.359 59.5183 180.125 59.6228 179.986 59.7098C179.865 59.7795 179.727 59.7885 179.57 59.7369C179.432 59.6852 179.362 59.6161 179.362 59.5294C179.361 59.2867 179.205 59.2698 178.894 59.4785C178.582 59.67 178.236 60.0002 177.856 60.4691C177.545 60.7819 177.277 61.1032 177.053 61.4331C176.845 61.7456 176.742 61.9365 176.742 62.0059C176.742 62.0752 176.716 62.1619 176.665 62.2661C176.613 62.3702 176.561 62.4917 176.51 62.6304C176.423 62.752 176.32 62.9516 176.199 63.2292C176.078 63.5068 175.958 63.7845 175.837 64.0621C175.734 64.3224 175.665 64.5219 175.631 64.6606C175.631 64.73 175.631 64.9206 175.632 65.2326C175.633 65.5273 175.633 65.8046 175.634 66.0646C175.635 66.3593 175.644 66.6106 175.662 66.8186C175.697 67.0265 175.741 67.2084 175.793 67.3642C175.846 67.5028 175.915 67.6586 176.002 67.8317C176.072 67.9529 176.176 68.1 176.316 68.2729C176.472 68.4286 176.576 68.541 176.628 68.6102C176.82 68.783 176.976 68.8866 177.097 68.921C177.219 68.938 177.444 68.9115 177.773 68.8413ZM188.029 71.468C187.821 71.4339 187.638 71.3216 187.482 71.1314C187.325 70.9411 187.195 70.7247 187.09 70.4823C187.02 70.1532 187.157 69.5808 187.502 68.7653C187.847 67.9325 188.312 66.9606 188.899 65.8499C189.278 65.2249 189.46 64.8605 189.442 64.7565C189.424 64.6525 189.26 64.601 188.948 64.6017C188.792 64.5674 188.609 64.5332 188.401 64.4991C188.193 64.4476 188.063 64.3872 188.011 64.318C187.733 64.1801 187.568 64.0331 187.516 63.8773C187.481 63.704 187.541 63.6085 187.697 63.5908C187.766 63.556 187.792 63.5126 187.775 63.4606C187.757 63.3913 187.757 63.3307 187.774 63.2786C187.826 63.2612 187.887 63.261 187.956 63.2782C188.043 63.2953 188.13 63.3124 188.216 63.3295C188.459 63.3289 188.641 63.3285 188.762 63.3282C188.884 63.3279 189.04 63.3275 189.23 63.327C189.317 63.3268 189.421 63.3266 189.542 63.3263C189.681 63.3259 189.802 63.3343 189.907 63.3514C190.149 63.3854 190.314 63.3677 190.4 63.2981C190.487 63.2113 190.651 63.0115 190.893 62.6989C191.031 62.4559 191.247 62.1347 191.541 61.7353C191.834 61.3186 192.093 60.8933 192.317 60.4594C193.146 59.2787 193.604 58.4889 193.69 58.09C193.793 57.6911 193.593 57.5096 193.09 57.5455C192.813 57.5635 192.501 57.6249 192.155 57.7298C191.826 57.8346 191.332 58.0091 190.674 58.2534C190.033 58.5324 189.583 58.7068 189.323 58.7768C189.081 58.8294 188.864 58.8039 188.673 58.7004C188.569 58.6833 188.482 58.6315 188.413 58.545C188.36 58.4412 188.325 58.3286 188.308 58.2073C188.307 58.0686 188.316 57.9386 188.333 57.8172C188.367 57.6265 188.722 57.4176 189.397 57.1906C190.073 56.9636 190.852 56.7363 191.736 56.5088C192.134 56.4385 192.515 56.3942 192.879 56.376C193.243 56.3578 193.555 56.3743 193.815 56.4257C194.093 56.477 194.266 56.5719 194.336 56.7104C194.336 56.7104 194.354 56.7363 194.388 56.7883C194.44 56.8228 194.475 56.8054 194.492 56.736C194.562 56.7532 194.614 56.8224 194.649 56.9436C194.684 57.0475 194.753 57.186 194.858 57.3591C195.032 57.6533 195.136 57.8697 195.171 58.0083C195.224 58.1469 195.224 58.3462 195.173 58.6063C195.121 58.7971 195.035 58.988 194.914 59.179C194.793 59.3699 194.698 59.4915 194.629 59.5437C194.543 59.6132 194.473 59.6914 194.422 59.7782C194.387 59.8649 194.37 59.9083 194.37 59.9083C194.353 59.9777 194.301 60.0472 194.215 60.1167C194.128 60.1689 194.042 60.2471 193.955 60.3513C193.938 60.4207 193.895 60.4988 193.826 60.5857C193.774 60.6725 193.739 60.7419 193.722 60.7939C193.705 60.8113 193.636 60.9155 193.515 61.1064C193.394 61.2974 193.247 61.5231 193.075 61.7835C192.902 62.0439 192.738 62.287 192.582 62.5127C192.444 62.7211 192.349 62.8687 192.298 62.9554C192.055 63.1814 191.935 63.3463 191.935 63.4503C191.935 63.5543 192.048 63.6581 192.274 63.7615C192.569 63.8821 192.812 64.0288 193.003 64.2017C193.194 64.3572 193.324 64.5562 193.394 64.7987C193.412 65.1454 193.369 65.3448 193.266 65.3971C193.179 65.5186 193.041 65.571 192.85 65.5541C192.677 65.5372 192.564 65.4941 192.512 65.4249C192.459 65.3211 192.338 65.226 192.147 65.1398C191.973 65.0363 191.8 64.9587 191.626 64.9071C191.453 64.8555 191.34 64.8298 191.288 64.8299C191.219 64.8648 191.15 64.9343 191.081 65.0385C191.012 65.1253 190.934 65.2208 190.847 65.325C190.727 65.4987 190.563 65.7851 190.356 66.1843C190.166 66.5661 189.967 66.9479 189.76 67.3297C189.571 67.6942 189.424 67.9632 189.32 68.1368C189.303 68.2235 189.251 68.3103 189.165 68.3972C189.096 68.484 189.044 68.5882 189.01 68.7096C188.941 68.8311 188.881 69.0132 188.829 69.256C188.778 69.4815 188.752 69.6896 188.753 69.8802C188.753 70.0536 188.779 70.1488 188.831 70.166C188.97 70.131 189.065 70.1481 189.118 70.2173C189.187 70.2692 189.239 70.3644 189.274 70.5029C189.361 70.6241 189.336 70.7715 189.197 70.9451C189.059 71.1015 188.877 71.2319 188.652 71.3365C188.427 71.4584 188.219 71.5022 188.029 71.468ZM197.961 69.6235C197.632 69.7456 197.355 69.807 197.13 69.8075C196.922 69.7907 196.687 69.6873 196.427 69.4973C196.097 69.1861 195.983 68.8744 196.087 68.5621C196.207 68.2325 196.492 67.9111 196.942 67.598C197.254 67.4065 197.479 67.302 197.617 67.2843C197.773 67.2666 198.007 67.3267 198.32 67.4646C198.841 67.7926 199.067 68.1561 198.999 68.5549C198.947 68.9537 198.602 69.3099 197.961 69.6235ZM203.273 70.3644C203.204 70.3299 203.1 70.2694 202.961 70.1831C202.839 70.0794 202.709 69.9671 202.57 69.8461C202.448 69.7077 202.361 69.5866 202.309 69.4827C202.257 69.3962 202.257 69.2402 202.308 69.0147C202.377 68.7892 202.446 68.6764 202.515 68.6762C202.567 68.7108 202.654 68.6499 202.775 68.4936C202.896 68.3373 203.017 68.1723 203.137 67.9987C203.258 67.8077 203.319 67.6949 203.319 67.6602C203.336 67.5909 203.379 67.5388 203.448 67.5039C203.535 67.4517 203.613 67.3995 203.682 67.3473C203.768 67.2085 203.88 67.0695 204.019 66.9305C204.174 66.7741 204.295 66.6438 204.382 66.5396C204.52 66.3659 204.771 66.1053 205.134 65.7577C205.497 65.4102 205.851 65.054 206.197 64.6891C206.56 64.2895 206.88 63.9421 207.157 63.6467C207.433 63.3341 207.58 63.117 207.597 62.9956C207.597 62.9956 207.623 62.9696 207.675 62.9175C207.744 62.848 207.822 62.7871 207.908 62.7349C207.995 62.6827 208.107 62.5957 208.246 62.474C208.401 62.3523 208.531 62.2393 208.635 62.1351C208.669 61.9963 208.764 61.8054 208.92 61.5624C209.092 61.302 209.265 61.0849 209.438 60.9111C209.576 60.7028 209.706 60.4771 209.826 60.2341C209.947 59.9738 210.024 59.783 210.059 59.6616C210.11 59.4708 210.11 59.3581 210.058 59.3236C210.006 59.2717 209.789 59.1856 209.407 59.0652C208.991 58.9275 208.532 58.8767 208.029 58.9126C207.544 58.9311 206.998 59.1578 206.393 59.5926C206.15 59.6452 205.925 59.7151 205.717 59.8023C205.527 59.8894 205.362 59.9245 205.223 59.9075C205.154 59.873 205.076 59.7952 204.989 59.6741C204.902 59.553 204.806 59.4405 204.702 59.3368L204.441 58.7914L205.246 58.3474C205.955 57.895 206.596 57.5814 207.167 57.4067C207.756 57.2319 208.293 57.2219 208.779 57.3767C208.97 57.3762 209.143 57.4018 209.299 57.4534C209.455 57.4877 209.533 57.5048 209.533 57.5048C209.672 57.4872 209.846 57.5647 210.054 57.7376C210.262 57.893 210.462 58.0919 210.654 58.3341C210.862 58.5762 211.019 58.8185 211.123 59.0609C211.402 59.4762 211.489 59.918 211.387 60.3863C211.301 60.8372 211.042 61.3838 210.611 62.0262C210.524 62.1304 210.334 62.3476 210.04 62.6776C209.746 63.0077 209.409 63.3812 209.029 63.7981C208.666 64.1977 208.329 64.5538 208.018 64.8666C207.724 65.1793 207.534 65.3791 207.447 65.466C207.326 65.5183 207.118 65.7008 206.825 66.0136C206.548 66.3089 206.245 66.639 205.917 67.0038C205.606 67.3512 205.338 67.6639 205.113 67.9418C204.906 68.2023 204.82 68.3325 204.854 68.3324C204.837 68.4018 204.863 68.4364 204.933 68.4362C205.002 68.4187 205.114 68.3838 205.27 68.3314C205.53 68.2441 205.868 68.1566 206.284 68.0689C206.717 67.9812 207.159 67.9107 207.609 67.8576C208.06 67.7872 208.449 67.7429 208.779 67.7247C209.125 67.7066 209.325 67.7234 209.377 67.7753C209.412 67.8618 209.438 67.8965 209.455 67.8791C209.49 67.8443 209.507 67.8269 209.507 67.8269C209.541 67.7055 209.758 67.6703 210.157 67.7213C210.573 67.7723 210.946 67.8494 211.275 67.9526C211.466 68.0041 211.614 68.0471 211.718 68.0815C211.839 68.1159 211.9 68.1677 211.9 68.237C211.9 68.237 211.918 68.2803 211.952 68.3669C212.005 68.4361 212.083 68.5313 212.187 68.6523C212.465 68.877 212.5 69.0242 212.292 69.0941C212.084 69.1639 211.634 69.139 210.94 69.0194C210.489 69.0205 210.117 69.0474 209.822 69.1002C209.753 69.135 209.606 69.1527 209.38 69.1533C209.155 69.1538 208.938 69.163 208.73 69.1809C208.418 69.147 208.106 69.1651 207.795 69.2352C207.483 69.288 207.11 69.3842 206.677 69.5239C206.521 69.5763 206.279 69.6549 205.95 69.7597C205.621 69.8646 205.266 69.9694 204.885 70.0744C204.504 70.1793 204.157 70.2582 203.845 70.3109C203.551 70.3637 203.36 70.3815 203.273 70.3644ZM218.124 70.3797C218.003 70.38 217.812 70.3284 217.552 70.2251C217.309 70.1043 217.049 69.9663 216.771 69.811C216.493 69.6384 216.268 69.4743 216.094 69.3187C215.712 68.9556 215.39 68.5144 215.129 67.9951C214.867 67.4757 214.684 66.9215 214.578 66.3324C214.473 65.726 214.463 65.1454 214.548 64.5905C214.736 63.4807 215.149 62.3877 215.788 61.3114C216.427 60.2178 217.161 59.3147 217.991 58.602C218.441 58.2022 218.848 57.8978 219.211 57.6889C219.575 57.4627 220.016 57.2883 220.536 57.1657C220.726 57.1132 220.934 57.0867 221.16 57.0861C221.385 57.0682 221.558 57.0591 221.68 57.0588C222.026 57.058 222.373 57.1265 222.72 57.2643C223.067 57.4021 223.362 57.5747 223.605 57.7821C223.848 57.9722 223.97 58.1539 223.971 58.3272C223.971 58.4485 223.963 58.5439 223.945 58.6133C223.928 58.6653 223.85 58.6568 223.711 58.5878L223.451 58.5885L223.713 59.3418C223.783 59.4803 223.844 59.6708 223.897 59.9134C223.949 60.1386 223.976 60.3465 223.976 60.5372C223.977 60.6932 223.951 60.9446 223.9 61.2914C223.849 61.6208 223.78 61.9763 223.695 62.3579C223.609 62.7394 223.523 63.095 223.437 63.4245C223.351 63.7541 223.274 63.9969 223.205 64.1531C223.153 64.2572 223.119 64.3613 223.102 64.4654C223.102 64.552 223.102 64.63 223.102 64.6994C223.033 64.8209 222.921 65.0551 222.766 65.4022C222.628 65.7492 222.525 65.9921 222.456 66.131C222.387 66.2005 222.326 66.2613 222.274 66.3134C222.24 66.3655 222.257 66.4261 222.327 66.4953C222.327 66.5299 222.284 66.6427 222.198 66.8336C222.111 67.0071 222.017 67.172 221.913 67.3283C221.827 67.4845 221.757 67.5627 221.705 67.5628C221.705 67.5628 221.68 67.5715 221.628 67.589C221.593 67.5891 221.576 67.6151 221.576 67.6671C221.576 67.7365 221.464 67.9187 221.239 68.214C221.014 68.4919 220.747 68.7872 220.435 69.1C220.262 69.2737 220.02 69.465 219.709 69.6738C219.415 69.8651 219.12 70.0305 218.826 70.1699C218.532 70.3093 218.298 70.3792 218.124 70.3797ZM218.042 68.7419C218.233 68.7414 218.415 68.7149 218.588 68.6625C218.761 68.5928 218.908 68.4971 219.03 68.3754C219.341 68.1667 219.704 67.8278 220.119 67.3587C220.534 66.8724 220.836 66.4036 221.026 65.9525C221.216 65.692 221.362 65.423 221.466 65.1454C221.586 64.8504 221.767 64.356 222.008 63.6621C222.146 63.471 222.241 63.2368 222.292 62.9593C222.343 62.6819 222.369 62.4478 222.368 62.2572C222.368 62.0665 222.367 61.8065 222.366 61.4772C222.383 61.1478 222.426 60.8703 222.494 60.6448C222.493 60.1942 222.484 59.8995 222.466 59.7609C222.448 59.605 222.379 59.4578 222.257 59.3194C222.188 59.2676 222.092 59.2158 221.971 59.1641C221.867 59.1124 221.754 59.0867 221.633 59.087C221.511 59.0873 221.286 59.1572 220.957 59.2966C220.628 59.4188 220.394 59.5234 220.256 59.6104C220.135 59.68 219.996 59.689 219.84 59.6374C219.701 59.5857 219.632 59.5166 219.631 59.4299C219.631 59.1872 219.475 59.1703 219.163 59.3791C218.852 59.5705 218.506 59.9007 218.126 60.3696C217.814 60.6824 217.547 61.0037 217.322 61.3336C217.115 61.6461 217.011 61.8371 217.011 61.9064C217.012 61.9757 216.986 62.0625 216.934 62.1666C216.882 62.2707 216.831 62.3922 216.779 62.531C216.693 62.6525 216.589 62.8521 216.469 63.1297C216.348 63.4074 216.227 63.685 216.107 63.9626C216.003 64.2229 215.934 64.4224 215.9 64.5611C215.9 64.6305 215.901 64.8211 215.901 65.1331C215.902 65.4278 215.903 65.7051 215.904 65.9651C215.904 66.2598 215.914 66.5111 215.931 66.7191C215.967 66.927 216.01 67.1089 216.063 67.2648C216.115 67.4033 216.185 67.5591 216.272 67.7322C216.342 67.8534 216.446 68.0005 216.585 68.1735C216.741 68.3291 216.846 68.4415 216.898 68.5107C217.089 68.6836 217.245 68.7872 217.367 68.8215C217.488 68.8386 217.713 68.812 218.042 68.7419ZM229.83 70.3508C229.708 70.3511 229.517 70.2995 229.257 70.1962C229.014 70.0754 228.754 69.9374 228.476 69.7821C228.198 69.6094 227.973 69.4453 227.799 69.2898C227.417 68.9267 227.095 68.4855 226.834 67.9661C226.572 67.4468 226.389 66.8926 226.283 66.3035C226.178 65.6971 226.168 65.1164 226.253 64.5616C226.441 63.4518 226.854 62.3587 227.493 61.2825C228.132 60.1889 228.866 59.2858 229.696 58.573C230.146 58.1733 230.553 57.8689 230.916 57.66C231.28 57.4338 231.721 57.2594 232.241 57.1368C232.431 57.0843 232.639 57.0578 232.865 57.0572C233.09 57.0393 233.263 57.0302 233.385 57.0299C233.731 57.0291 234.078 57.0975 234.425 57.2354C234.772 57.3732 235.067 57.5458 235.31 57.7532C235.553 57.9432 235.675 58.1249 235.676 58.2983C235.676 58.4196 235.668 58.515 235.65 58.5843C235.633 58.6364 235.555 58.6279 235.416 58.5589L235.156 58.5596L235.418 59.3129C235.488 59.4514 235.549 59.6419 235.602 59.8845C235.654 60.1097 235.681 60.3176 235.681 60.5083C235.682 60.6643 235.656 60.9157 235.605 61.2625C235.554 61.5919 235.485 61.9474 235.4 62.329C235.314 62.7105 235.228 63.0661 235.142 63.3956C235.056 63.7252 234.979 63.968 234.91 64.1242C234.858 64.2283 234.824 64.3324 234.807 64.4364C234.807 64.5231 234.807 64.6011 234.807 64.6704C234.738 64.7919 234.626 65.0262 234.471 65.3733C234.333 65.7203 234.23 65.9632 234.161 66.102C234.092 66.1715 234.031 66.2324 233.979 66.2845C233.945 66.3366 233.962 66.3972 234.032 66.4664C234.032 66.501 233.989 66.6138 233.903 66.8047C233.817 66.9782 233.722 67.1431 233.618 67.2994C233.532 67.4556 233.463 67.5338 233.411 67.5339C233.411 67.5339 233.385 67.5426 233.333 67.5601C233.298 67.5602 233.281 67.5862 233.281 67.6382C233.281 67.7075 233.169 67.8898 232.944 68.1851C232.72 68.4629 232.452 68.7583 232.14 69.071C231.967 69.2448 231.725 69.4361 231.414 69.6448C231.12 69.8362 230.825 70.0016 230.531 70.141C230.237 70.2804 230.003 70.3503 229.83 70.3508ZM229.747 68.7129C229.938 68.7125 230.12 68.686 230.293 68.6336C230.466 68.5638 230.614 68.4681 230.735 68.3465C231.046 68.1377 231.409 67.7988 231.824 67.3298C232.239 66.8435 232.541 66.3747 232.731 65.9236C232.921 65.6631 233.067 65.3941 233.171 65.1165C233.291 64.8215 233.472 64.3271 233.713 63.6331C233.851 63.4421 233.946 63.2079 233.997 62.9304C234.048 62.653 234.074 62.4189 234.073 62.2282C234.073 62.0376 234.072 61.7776 234.071 61.4482C234.088 61.1189 234.131 60.8414 234.199 60.6159C234.198 60.1653 234.189 59.8706 234.171 59.732C234.154 59.576 234.084 59.4289 233.962 59.2905C233.893 59.2387 233.797 59.1869 233.676 59.1352C233.572 59.0835 233.459 59.0578 233.338 59.058C233.216 59.0583 232.991 59.1282 232.662 59.2677C232.333 59.3899 232.099 59.4944 231.961 59.5815C231.84 59.6511 231.701 59.6601 231.545 59.6085C231.406 59.5568 231.337 59.4877 231.336 59.401C231.336 59.1583 231.18 59.1414 230.868 59.3502C230.557 59.5416 230.211 59.8718 229.831 60.3407C229.52 60.6535 229.252 60.9748 229.027 61.3047C228.82 61.6172 228.716 61.8081 228.717 61.8775C228.717 61.9468 228.691 62.0335 228.639 62.1377C228.587 62.2418 228.536 62.3633 228.484 62.5021C228.398 62.6236 228.294 62.8232 228.174 63.1008C228.053 63.3785 227.932 63.6561 227.812 63.9337C227.708 64.194 227.639 64.3935 227.605 64.5322C227.605 64.6016 227.606 64.7922 227.607 65.1042C227.607 65.3989 227.608 65.6762 227.609 65.9362C227.609 66.2309 227.619 66.4822 227.636 66.6902C227.672 66.8981 227.715 67.08 227.768 67.2358C227.82 67.3744 227.89 67.5302 227.977 67.7033C228.047 67.8245 228.151 67.9716 228.29 68.1445C228.446 68.3002 228.551 68.4126 228.603 68.4818C228.794 68.6546 228.95 68.7583 229.072 68.7926C229.193 68.8097 229.418 68.7831 229.747 68.7129ZM240.573 70.4542C240.14 70.4553 239.715 70.413 239.299 70.3274C238.9 70.2243 238.579 70.0951 238.336 69.9397C238.092 69.767 237.979 69.5766 237.996 69.3686C238.013 69.0912 238.073 68.9437 238.177 68.9261C238.281 68.8912 238.524 68.8993 238.905 68.9503C239.495 69.0702 240.127 69.0773 240.803 68.9716C241.479 68.866 242.111 68.6824 242.7 68.421C243.289 68.1595 243.747 67.8637 244.076 67.5335C244.543 67.0817 244.749 66.6305 244.696 66.18C244.661 65.7294 244.391 65.3401 243.887 65.012C243.662 64.8566 243.349 64.71 242.95 64.5723C242.551 64.4346 242.152 64.3316 241.754 64.2633C241.372 64.1776 241.06 64.1437 240.817 64.1616C240.661 64.1793 240.531 64.1796 240.427 64.1626C240.341 64.1454 240.184 64.0765 239.959 63.9557C239.854 63.8346 239.759 63.7049 239.672 63.5664C239.585 63.4106 239.524 63.2981 239.489 63.2289C239.471 63.1422 239.515 63.0555 239.618 62.9685C239.739 62.8816 239.99 62.7336 240.371 62.5247C240.752 62.2984 241.341 61.9676 242.137 61.5323C242.864 61.1319 243.435 60.8098 243.85 60.5661C244.283 60.305 244.621 60.0962 244.863 59.9396C245.122 59.7656 245.33 59.6091 245.486 59.47C245.797 59.0533 245.952 58.7842 245.952 58.6629C245.951 58.5416 245.726 58.4381 245.275 58.3526C244.842 58.319 244.425 58.294 244.027 58.2776C243.628 58.2613 243.429 58.2878 243.429 58.3571C243.429 58.3571 243.42 58.3571 243.403 58.3572C243.403 58.3572 243.377 58.3572 243.325 58.3574C243.238 58.3229 243.048 58.3321 242.753 58.3848C242.458 58.4375 242.173 58.4989 241.895 58.5689C241.636 58.6389 241.497 58.6999 241.48 58.7519C241.463 58.7866 241.359 58.8476 241.168 58.9347C240.995 59.0045 240.813 59.0656 240.623 59.1181C240.45 59.1705 240.337 59.1968 240.285 59.1969C240.198 59.1624 240.094 59.076 239.972 58.9377C239.868 58.7819 239.781 58.6261 239.711 58.4703C239.641 58.2971 239.624 58.1672 239.658 58.0804C239.693 58.011 239.797 57.9241 239.97 57.8197C240.16 57.6979 240.376 57.576 240.619 57.4541C240.861 57.3148 241.077 57.2016 241.268 57.1145C241.51 57.0445 241.848 56.9917 242.281 56.9559C242.732 56.9202 243.183 56.9017 243.633 56.9006C244.084 56.8822 244.413 56.8813 244.621 56.8982C245.419 56.9829 246.035 57.1893 246.469 57.5176C246.903 57.8459 247.173 58.2872 247.278 58.8416C247.331 59.0841 247.349 59.2834 247.332 59.4395C247.315 59.5955 247.237 59.7604 247.099 59.9341C246.961 60.0904 246.718 60.325 246.373 60.6379C245.94 60.9163 245.585 61.1511 245.308 61.3425C245.031 61.5338 244.616 61.7775 244.062 62.0736C243.941 62.1605 243.777 62.2736 243.569 62.4128C243.361 62.552 243.171 62.6824 242.998 62.8042C242.825 62.9086 242.738 62.9782 242.738 63.0128C242.738 63.0128 242.773 63.0388 242.843 63.0906C242.912 63.1251 242.999 63.1769 243.103 63.2459C243.207 63.315 243.303 63.3928 243.39 63.4792C243.893 63.6513 244.353 63.9275 244.77 64.3078C245.187 64.6881 245.482 64.9994 245.656 65.2416C245.9 65.7784 245.997 66.2981 245.946 66.8009C245.912 67.3037 245.74 67.7808 245.429 68.2322C245.118 68.6663 244.66 69.0661 244.054 69.4316C243.57 69.7101 243.007 69.9455 242.366 70.1378C241.725 70.3127 241.127 70.4182 240.573 70.4542Z" fill="black"/>
</svg>
